<?xml version="1.0" encoding="UTF-8" standalone="no"?>
<!-- Created with Inkscape (http://www.inkscape.org/) -->

<svg
   xmlns:dc="http://purl.org/dc/elements/1.1/"
   xmlns:cc="http://creativecommons.org/ns#"
   xmlns:rdf="http://www.w3.org/1999/02/22-rdf-syntax-ns#"
   xmlns:svg="http://www.w3.org/2000/svg"
   xmlns="http://www.w3.org/2000/svg"
   xmlns:sodipodi="http://sodipodi.sourceforge.net/DTD/sodipodi-0.dtd"
   xmlns:inkscape="http://www.inkscape.org/namespaces/inkscape"
   version="1.1"
   width="566.28577"
   height="185.75"
   id="svg3253"
   inkscape:version="0.48.3.1 r9886"
   sodipodi:docname="agpl-v3-logo-white-on-gray.svg"
   inkscape:export-filename="/home/trenkman/projects/multimap/docs/theme/img/agpl-v3-logo-white-on-gray.png"
   inkscape:export-xdpi="24.710632"
   inkscape:export-ydpi="24.710632">
  <sodipodi:namedview
     pagecolor="#000000"
     bordercolor="#666666"
     borderopacity="1"
     objecttolerance="10"
     gridtolerance="10"
     guidetolerance="10"
     inkscape:pageopacity="0"
     inkscape:pageshadow="2"
     inkscape:window-width="1920"
     inkscape:window-height="831"
     id="namedview8"
     showgrid="false"
     inkscape:zoom="1.66"
     inkscape:cx="164.91372"
     inkscape:cy="92.875"
     inkscape:window-x="1978"
     inkscape:window-y="613"
     inkscape:window-maximized="0"
     inkscape:current-layer="layer1" />
  <defs
     id="defs3255" />
  <metadata
     id="metadata3258">
    <rdf:RDF>
      <cc:Work
         rdf:about="">
        <dc:format>image/svg+xml</dc:format>
        <dc:type
           rdf:resource="http://purl.org/dc/dcmitype/StillImage" />
        <dc:title></dc:title>
      </cc:Work>
    </rdf:RDF>
  </metadata>
  <g
     transform="translate(-94.007646,-416.625)"
     id="layer1">
    <path
       style="font-size:medium;font-style:normal;font-variant:normal;font-weight:normal;font-stretch:normal;text-indent:0;text-align:start;text-decoration:none;line-height:normal;letter-spacing:normal;word-spacing:normal;text-transform:none;direction:ltr;block-progression:tb;writing-mode:lr-tb;text-anchor:start;baseline-shift:baseline;color:#000000;fill:#616161;fill-opacity:1;fill-rule:evenodd;stroke:none;stroke-width:5.69160366;marker:none;visibility:visible;display:inline;overflow:visible;enable-background:accumulate;font-family:Sans;-inkscape-font-specification:Sans"
       d="m 633.00765,416.625 c -8.30955,0.59935 -19.38671,3.09612 -29.875,7.3125 l -58.96875,0 -283.90625,0 -126.65625,0 -39.593754,172.71875 104.187504,0 183.15625,0 74.3125,0 c 5.47727,3.20472 12.13385,5.0713 19.5625,5.71875 l 0.125,0 0.0937,0 12.75,0 0.0937,0 0.125,0 c 4.14373,-0.32333 8.46855,-0.93836 12.9375,-1.8125 7.70474,-1.5066 15.82837,-3.80423 24.25,-6.875 6.37566,-2.32461 12.9232,-5.05797 19.5625,-8.25 14.44806,-6.926 29.32904,-15.87029 43.9375,-26.625 l 0,0.0312 c 4.8139,-3.54095 9.44327,-7.18306 13.875,-10.875 4.06436,-3.38174 7.96019,-6.80615 11.6875,-10.28125 l 0,-0.0312 0.0312,-0.0312 c 10.46897,-10.0892 18.42044,-20.32466 23.03125,-29.59375 2.40162,-4.82709 3.90482,-9.38615 4.28125,-13.625 0.37643,-4.23885 -0.43084,-8.2594 -2.8125,-11.40625 -1.74915,-2.315 -4.21071,-3.83656 -7.03125,-4.84375 9.1679,-7.52724 16.63743,-15.57159 21.53125,-23.4375 5.71468,-9.18529 8.25994,-18.27512 5.46875,-25.9375 -1.78405,-4.92195 -5.81356,-8.61537 -11.125,-10.53125 -2.35877,-0.84835 -4.93314,-1.36091 -7.6875,-1.59375 l -0.125,-0.0312 -0.125,0 -6.875,0 -0.0937,0 -0.125,0 z"
       id="path3212" />
    <path
       style="font-size:medium;font-style:normal;font-variant:normal;font-weight:normal;font-stretch:normal;text-indent:0;text-align:start;text-decoration:none;line-height:normal;letter-spacing:normal;word-spacing:normal;text-transform:none;direction:ltr;block-progression:tb;writing-mode:lr-tb;text-anchor:start;baseline-shift:baseline;color:#000000;fill:#ffffff;fill-opacity:1;fill-rule:evenodd;stroke:none;stroke-width:5.69160366000000018;marker:none;visibility:visible;display:inline;overflow:visible;enable-background:accumulate;font-family:Sans;-inkscape-font-specification:Sans"
       d="m 633.44515,422.3125 6.40625,0 c 2.34812,0.1985 4.45003,0.63388 6.25,1.28125 4.04598,1.45942 6.53746,3.86597 7.71875,7.125 1.87781,5.15498 0.24078,12.62665 -4.96875,21 -5.20953,8.37335 -13.81228,17.44918 -24.75,25.65625 l -6.03125,4.53125 7.53125,0.59375 c 4.45209,0.34483 7.38766,1.72086 9.0625,3.9375 1.37289,1.81397 1.97534,4.19622 1.6875,7.4375 -0.28784,3.24128 -1.53802,7.24189 -3.71875,11.625 -4.18373,8.41054 -11.74709,18.26402 -21.84375,28 -0.011,0.0106 -0.0204,0.0208 -0.0312,0.0312 -3.63774,3.39046 -7.46532,6.75745 -11.4375,10.0625 -4.34837,3.6225 -8.87691,7.18668 -13.59375,10.65625 -14.3303,10.54993 -28.92553,19.26935 -43.03125,26.03125 -6.47244,3.11181 -12.83409,5.80297 -19.03125,8.0625 -8.17541,2.98099 -16.03539,5.21493 -23.40625,6.65625 -4.27235,0.83568 -8.37692,1.38285 -12.28125,1.6875 l -12.28125,0 c -0.1054,-0.009 -0.20761,-0.0216 -0.3125,-0.0312 l 1.21875,0 c -11.34894,-0.99044 -20.31754,-4.95636 -25.65625,-12.21875 -0.99023,-1.34339 -1.78299,-2.79857 -2.5,-4.3125 -0.45543,-1.11548 -0.87981,-2.23678 -1.3125,-3.375 -1.1384,-3.62001 -1.61122,-7.62602 -1.40625,-11.90625 0.56922,-11.92963 6.1765,-26.14025 15.875,-41 10.30172,-15.79179 25.23245,-32.32819 43.71875,-47.6875 4.14351,-3.43997 8.42143,-6.85495 12.90625,-10.15625 5.54368,-4.07842 11.12975,-7.83097 16.71875,-11.34375 20.59218,-12.96437 41.14195,-22.01714 59.34375,-26.625 -17.39359,5.67445 -36.94403,15.29171 -56.25,28.40625 -0.69444,0.4689 -1.37932,0.96385 -2.0625,1.4375 -10.71147,7.42185 -20.40594,15.2898 -28.875,23.25 -27.25154,25.62363 -41.6704,52.19482 -35.125,67.75 0.46672,1.06996 1.03875,2.06357 1.6875,3.03125 7.03486,10.34722 24.46767,12.14872 46.5625,6.59375 1.50265,-0.37551 2.98329,-0.80604 4.53125,-1.25 7.05762,-2.03745 14.56342,-4.7954 22.28125,-8.1875 1.85543,-0.81969 3.73536,-1.66309 5.625,-2.5625 0.1935,-0.091 0.36901,-0.17877 0.5625,-0.28125 24.36018,-12.10374 43.07268,-26.00722 47.125,-34.375 0.88795,-1.82019 1.10343,-3.37697 0.5,-4.59375 -2.89134,-5.86242 -23.11682,-1.89835 -47.625,8.71875 -1.96917,0.85389 -3.95387,1.72063 -5.96875,2.65625 1.63916,-1.52184 3.3523,-3.05886 5.09375,-4.5625 2.77758,-2.39277 5.65667,-4.72039 8.71875,-7.03125 4.79227,-3.62891 9.63653,-6.90414 14.40625,-9.8125 22.33383,-16.84949 33.60638,-32.8039 31.25,-38.71875 -0.44396,-1.11447 -1.38659,-1.87682 -2.84375,-2.34375 -4.65574,-1.48088 -13.14428,0.30009 -23.46875,4.53125 -8.51478,3.49243 -18.304,8.6473 -28.21875,15.09375 l -1.34375,0.90625 -0.25,0.125 -4.78125,3.1875 2.75,-5.03125 c 4.06379,-7.43907 10.69616,-15.19609 18.9375,-22.40625 6.04444,-5.27165 12.94187,-10.24762 20.375,-14.59375 2.8116,-1.64609 5.62588,-3.15284 8.4375,-4.53125 2.88006,-1.40709 5.75088,-2.66797 8.5625,-3.78125 2.28653,-0.90425 4.62141,-1.87158 6.96875,-2.8125 7.88273,-2.55484 15.71674,-4.10736 21.59375,-4.53125 z"
       id="path3210" />
    <path
       style="font-size:medium;font-style:normal;font-variant:normal;font-weight:normal;font-stretch:normal;text-indent:0;text-align:start;text-decoration:none;line-height:normal;letter-spacing:normal;word-spacing:normal;text-transform:none;direction:ltr;block-progression:tb;writing-mode:lr-tb;text-anchor:start;baseline-shift:baseline;color:#000000;fill:#ffffff;fill-opacity:1;fill-rule:evenodd;stroke:none;stroke-width:5.69160366000000018;marker:none;visibility:visible;display:inline;overflow:visible;enable-background:accumulate;font-family:Sans;-inkscape-font-specification:Sans"
       d="m 442.00765,424.1875 c -1.11547,17.02579 2.16613,41.96886 9.65625,69.65625 1.33189,4.92661 2.78134,9.92878 4.375,15 0.99042,3.13154 2.0153,6.21521 3.0625,9.25 -0.61472,0.90378 -1.2318,1.78591 -1.8125,2.6875 -9.34553,14.3222 -14.81009,27.85484 -16.1875,39.625 -3.95003,-13.2273 -6.90887,-27.69963 -8.59375,-43.0625 -0.478,-4.40172 -0.87453,-8.76188 -1.125,-13.0625 -1.84414,-31.23894 2.25841,-59.54154 10.625,-80.09375 z"
       id="path3208" />
    <path
       style="font-size:medium;font-style:normal;font-variant:normal;font-weight:normal;font-stretch:normal;text-indent:0;text-align:start;text-decoration:none;line-height:normal;letter-spacing:normal;word-spacing:normal;text-transform:none;direction:ltr;block-progression:tb;writing-mode:lr-tb;text-anchor:start;baseline-shift:baseline;color:#000000;fill:#ffffff;fill-opacity:1;fill-rule:evenodd;stroke:none;stroke-width:5.69160366000000018;marker:none;visibility:visible;display:inline;overflow:visible;enable-background:accumulate;font-family:Sans;-inkscape-font-specification:Sans"
       d="M 124.09375 28.96875 L 28.625 127.5625 L 43.125 127.5625 L 70.34375 99.1875 L 110.34375 99.1875 L 103.8125 127.5625 L 116.625 127.5625 L 139.6875 28.96875 L 124.09375 28.96875 z M 125.875 39.75 C 123.62 46.29456 121.28114 54.4646 118.84375 64.28125 L 112.78125 89.03125 L 80.0625 89.03125 L 108 59.84375 C 115.41778 52.08908 121.36855 45.39804 125.875 39.75 z "
       transform="translate(94.007646,416.625)"
       id="path3206" />
    <path
       style="font-size:medium;font-style:normal;font-variant:normal;font-weight:normal;font-stretch:normal;text-indent:0;text-align:start;text-decoration:none;line-height:normal;letter-spacing:normal;word-spacing:normal;text-transform:none;direction:ltr;block-progression:tb;writing-mode:lr-tb;text-anchor:start;baseline-shift:baseline;color:#000000;fill:#ffffff;fill-opacity:1;fill-rule:evenodd;stroke:none;stroke-width:5.69160366000000018;marker:none;visibility:visible;display:inline;overflow:visible;enable-background:accumulate;font-family:Sans;-inkscape-font-specification:Sans"
       d="m 255.4764,446.34375 c 0.21308,-0.005 0.4392,0 0.65625,0 l 42.09375,0 c 3.59707,0 6.3631,0.67778 8.34375,2.03125 1.96918,1.3614 2.71673,3.10771 2.25,5.25 l -5.03125,22.65625 -14.8125,0 4.84375,-22.03125 -37.125,0 -13.40625,60.59375 -4.84375,21.96875 37.09375,0 0.0625,-0.15625 7.40625,-33.5625 -17.40625,0 1.65625,-7.59375 c 0,-1.9e-4 32.28125,0 32.28125,0 0,-1.9e-4 -9.25,41.90625 -9.25,41.90625 -0.12531,0.59652 -0.36027,1.12107 -0.65625,1.65625 -0.76271,1.38868 -2.08209,2.58335 -3.9375,3.5625 -2.57261,1.35447 -5.65272,2.03125 -9.25,2.03125 l -42.0625,0 c -3.59707,0 -6.36291,-0.67678 -8.34375,-2.03125 -1.96918,-1.35467 -2.72811,-3.07409 -2.25,-5.21875 L 242.32015,453.625 c 0.478,-2.14229 1.97862,-3.88861 4.5625,-5.25 0.0912,-0.0491 0.19024,-0.0785 0.28125,-0.125 2.35854,-1.18135 5.1149,-1.83067 8.3125,-1.90625 z"
       id="path3204" />
    <path
       style="font-size:medium;font-style:normal;font-variant:normal;font-weight:normal;font-stretch:normal;text-indent:0;text-align:start;text-decoration:none;line-height:normal;letter-spacing:normal;word-spacing:normal;text-transform:none;direction:ltr;block-progression:tb;writing-mode:lr-tb;text-anchor:start;baseline-shift:baseline;color:#000000;fill:#ffffff;fill-opacity:1;fill-rule:evenodd;stroke:none;stroke-width:5.69160366000000018;marker:none;visibility:visible;display:inline;overflow:visible;enable-background:accumulate;font-family:Sans;-inkscape-font-specification:Sans"
       d="M 227.4375 29.71875 L 206.75 123.0625 L 205.65625 128.03125 L 220.1875 128.03125 L 221.375 122.53125 L 228.8125 88.96875 L 267.3125 88.96875 C 270.87555 88.96875 273.93589 88.27456 276.53125 86.90625 C 279.12662 85.54248 280.65828 83.81615 281.125 81.6875 L 291 37 C 291.478 34.85771 290.71067 33.1114 288.71875 31.75 C 286.73789 30.39653 283.95781 29.71875 280.40625 29.71875 L 227.4375 29.71875 z M 240.1875 37.625 L 276.34375 37.625 L 266.75 81.09375 L 230.5625 81.09375 L 240.1875 37.625 z "
       transform="translate(94.007646,416.625)"
       id="path3202" />
    <path
       style="font-size:medium;font-style:normal;font-variant:normal;font-weight:normal;font-stretch:normal;text-indent:0;text-align:start;text-decoration:none;line-height:normal;letter-spacing:normal;word-spacing:normal;text-transform:none;direction:ltr;block-progression:tb;writing-mode:lr-tb;text-anchor:start;baseline-shift:baseline;color:#000000;fill:#ffffff;fill-opacity:1;fill-rule:evenodd;stroke:none;stroke-width:5.69160366000000018;marker:none;visibility:visible;display:inline;overflow:visible;enable-background:accumulate;font-family:Sans;-inkscape-font-specification:Sans"
       d="m 394.6014,446.34375 14.53125,0 -16.4375,74.25 -3.59375,16.21875 34.71875,0 c 0.36423,2.66245 0.79455,5.25988 1.25,7.84375 l -52.21875,0 4.125,-18.625 17.625,-79.6875 z"
       id="path3200" />
    <path
       style="font-size:medium;font-style:normal;font-variant:normal;font-weight:normal;font-stretch:normal;text-indent:0;text-align:start;text-decoration:none;line-height:normal;letter-spacing:normal;word-spacing:normal;text-transform:none;direction:ltr;block-progression:tb;writing-mode:lr-tb;text-anchor:start;baseline-shift:baseline;color:#000000;fill:#ffffff;fill-opacity:1;fill-rule:evenodd;stroke:none;stroke-width:5.69160366000000018;marker:none;visibility:visible;display:inline;overflow:visible;enable-background:accumulate;font-family:Sans;-inkscape-font-specification:Sans"
       d="m 257.07015,556.84375 c 0.14213,-0.005 0.29446,0 0.4375,0 1.68467,0 3.12878,0.28581 4.3125,0.84375 1.26366,0.59195 2.18674,1.46382 2.6875,2.625 0.48947,1.12692 0.6055,2.41233 0.34375,3.8125 l -0.0937,0.53125 -4.15625,0 c -1.9e-4,0 0.0312,-0.5 0.0312,-0.5 0.10763,-0.97836 -0.029,-1.7522 -0.40625,-2.28125 -0.0492,-0.0662 -0.0988,-0.15918 -0.15625,-0.21875 -0.0938,-0.096 -0.25431,-0.20211 -0.375,-0.28125 -0.58246,-0.367 -1.48162,-0.5625 -2.65625,-0.5625 -1.55964,0 -2.73451,0.26605 -3.53125,0.8125 -0.77417,0.53499 -1.24697,1.1578 -1.40625,1.875 -0.15946,0.72847 0.099,1.10774 0.28125,1.3125 0.005,0.005 0.0245,0.025 0.0312,0.0312 0.23069,0.19646 1.00989,0.66239 3.5,1.25 2.25387,0.54644 3.75131,1.01628 4.59375,1.4375 1.27493,0.64874 2.18953,1.49552 2.65625,2.53125 0.46673,1.02467 0.56597,2.23357 0.28125,3.53125 -0.2845,1.26366 -0.95004,2.40728 -1.90625,3.5 -0.94472,1.09271 -2.14788,1.95907 -3.59375,2.5625 -1.43419,0.59196 -3.00858,0.9375 -4.625,0.9375 -2.04911,0 -3.68254,-0.32278 -4.96875,-0.9375 -1.34319,-0.63745 -2.30599,-1.62835 -2.875,-2.9375 -0.54647,-1.27474 -0.68225,-2.73031 -0.375,-4.3125 l 0.125,-0.5 4.09375,0 -0.0312,0.5 c -0.10243,0.94472 1.1e-4,1.71204 0.25,2.28125 0.2392,0.54646 0.67776,0.99099 1.40625,1.34375 0.77417,0.37572 1.73956,0.59375 2.84375,0.59375 0.99042,0 1.91054,-0.17277 2.71875,-0.46875 0.79673,-0.28472 1.41975,-0.67806 1.875,-1.15625 0.44397,-0.478 0.69874,-0.98498 0.8125,-1.53125 0.11387,-0.48947 0.0996,-0.87727 -0.0937,-1.21875 -0.21625,-0.36423 -0.64081,-0.69572 -1.3125,-0.96875 0,-2e-4 -3.5,-1.03125 -3.5,-1.03125 -1.94642,-0.48948 -3.26855,-0.97078 -4.03125,-1.4375 -1.03593,-0.61452 -1.76905,-1.39904 -2.15625,-2.34375 -0.38699,-0.93345 -0.43797,-1.96682 -0.1875,-3.09375 0.26176,-1.20667 0.85059,-2.35054 1.75,-3.375 0.91069,-1.03594 2.09984,-1.84003 3.5,-2.375 1.23793,-0.46415 2.53399,-0.73516 3.90625,-0.78125 z"
       id="path3194" />
    <path
       style="font-size:medium;font-style:normal;font-variant:normal;font-weight:normal;font-stretch:normal;text-indent:0;text-align:start;text-decoration:none;line-height:normal;letter-spacing:normal;word-spacing:normal;text-transform:none;direction:ltr;block-progression:tb;writing-mode:lr-tb;text-anchor:start;baseline-shift:baseline;color:#000000;fill:#ffffff;fill-opacity:1;fill-rule:evenodd;stroke:none;stroke-width:5.69160366000000018;marker:none;visibility:visible;display:inline;overflow:visible;enable-background:accumulate;font-family:Sans;-inkscape-font-specification:Sans"
       d="m 294.4139,556.90625 c 0.22514,-0.0173 0.4485,0 0.6875,0 l 2.5625,0.28125 0.84375,0.0625 c 2e-4,0 -1.25,3.1875 -1.25,3.1875 l -0.25,0.5 -1.9375,-0.1875 c -0.57771,0 -1.00267,0.0858 -1.28125,0.28125 -0.0184,0.0139 -0.0768,0.0476 -0.0937,0.0625 -0.0374,0.0328 -0.0829,0.10358 -0.125,0.15625 -0.17142,0.22457 -0.37752,0.61804 -0.53125,1.34375 0,0 -0.088,0.30054 -0.15625,0.5625 l 3.0625,0 -0.78125,3.53125 -3,0 c -0.22773,1.02445 -3,13.5625 -3,13.5625 l -4.125,0 c 0,0 2.6585,-12.04858 3,-13.5625 l -2.375,0 0.78125,-3.53125 2.34375,0 c 0.11369,-0.48947 0.28125,-1.09375 0.28125,-1.09375 0.25049,-1.13842 0.5335,-1.96203 0.875,-2.53125 0.46692,-0.78545 1.10655,-1.42806 1.9375,-1.90625 0.68456,-0.39768 1.55567,-0.64279 2.53125,-0.71875 z"
       id="path3192" />
    <path
       style="font-size:medium;font-style:normal;font-variant:normal;font-weight:normal;font-stretch:normal;text-indent:0;text-align:start;text-decoration:none;line-height:normal;letter-spacing:normal;word-spacing:normal;text-transform:none;direction:ltr;block-progression:tb;writing-mode:lr-tb;text-anchor:start;baseline-shift:baseline;color:#000000;fill:#ffffff;fill-opacity:1;fill-rule:evenodd;stroke:none;stroke-width:5.69160366000000018;marker:none;visibility:visible;display:inline;overflow:visible;enable-background:accumulate;font-family:Sans;-inkscape-font-specification:Sans"
       d="m 304.25765,557.09375 c 0,0 -1.07072,4.83307 -1.34375,6.0625 l 2.6875,0 -0.78125,3.53125 -2.6875,0 c -0.21624,0.97874 -1.90625,8.5625 -1.90625,8.5625 0,0 -0.15625,0.92574 -0.15625,1.1875 2.1e-4,0.009 -7.8e-4,0.0249 0,0.0312 5.9e-4,0.003 -7.8e-4,0.029 0,0.0312 9.9e-4,0.002 0.0299,-10e-4 0.0312,0 l 0.4375,0.0312 1.96875,-0.125 -0.21875,3.15625 0.0312,0.5625 -2.8125,0.3125 c -1.11547,0 -1.9393,-0.17532 -2.53125,-0.5625 -0.62599,-0.40974 -0.97701,-0.94201 -1.125,-1.625 -0.0227,-0.12531 -0.0937,-0.30075 -0.0937,-0.5625 0,-0.51223 0.10724,-1.4036 0.4375,-2.90625 0,0 1.49376,-6.68232 1.8125,-8.09375 l -1.9375,0 0.78125,-3.53125 1.9375,0 c 0.18221,-0.81968 0.8125,-3.625 0.8125,-3.625 l 3.3125,-1.75 1.34375,-0.6875 z"
       id="path3190" />
    <path
       style="font-size:medium;font-style:normal;font-variant:normal;font-weight:normal;font-stretch:normal;text-indent:0;text-align:start;text-decoration:none;line-height:normal;letter-spacing:normal;word-spacing:normal;text-transform:none;direction:ltr;block-progression:tb;writing-mode:lr-tb;text-anchor:start;baseline-shift:baseline;color:#000000;fill:#ffffff;fill-opacity:1;fill-rule:evenodd;stroke:none;stroke-width:5.69160366000000018;marker:none;visibility:visible;display:inline;overflow:visible;enable-background:accumulate;font-family:Sans;-inkscape-font-specification:Sans"
       d="m 173.19515,557.21875 16,0 -0.875,4 -11.71875,0 c -0.18209,0.80821 -0.92568,4.06608 -1.1875,5.25 l 10.15625,0 -0.90625,4 -10.125,0 c -0.21628,0.99042 -2.15625,9.78125 -2.15625,9.78125 l -4.3125,0 5.125,-23.03125 z"
       id="path3188" />
    <path
       style="font-size:medium;font-style:normal;font-variant:normal;font-weight:normal;font-stretch:normal;text-indent:0;text-align:start;text-decoration:none;line-height:normal;letter-spacing:normal;word-spacing:normal;text-transform:none;direction:ltr;block-progression:tb;writing-mode:lr-tb;text-anchor:start;baseline-shift:baseline;color:#000000;fill:#ffffff;fill-opacity:1;fill-rule:evenodd;stroke:none;stroke-width:5.69160366000000018;marker:none;visibility:visible;display:inline;overflow:visible;enable-background:accumulate;font-family:Sans;-inkscape-font-specification:Sans"
       d="m 194.63265,562.84375 c 0.1606,-0.0198 0.33813,0 0.5,0 1.02449,0 1.96436,0.31999 2.875,0.96875 l 0.59375,0.375 -2.21875,3.625 -0.59375,-0.40625 c -0.44391,-0.2845 -0.93662,-0.4375 -1.4375,-0.4375 -0.43257,0 -0.8402,0.16449 -1.25,0.4375 -0.43257,0.28472 -0.78935,0.64402 -1.0625,1.15625 -0.4781,0.87646 -0.82346,1.87882 -1.0625,2.9375 l -1.9375,8.75 -4.125,0 3.8125,-17.09375 3.84375,0 c 0,0 -0.14199,0.52525 -0.1875,0.71875 0.18218,-0.13658 0.40308,-0.33502 0.5625,-0.4375 0.55133,-0.32901 1.11374,-0.5235 1.6875,-0.59375 z"
       id="path3186" />
    <path
       style="font-size:medium;font-style:normal;font-variant:normal;font-weight:normal;font-stretch:normal;text-indent:0;text-align:start;text-decoration:none;line-height:normal;letter-spacing:normal;word-spacing:normal;text-transform:none;direction:ltr;block-progression:tb;writing-mode:lr-tb;text-anchor:start;baseline-shift:baseline;color:#000000;fill:#ffffff;fill-opacity:1;fill-rule:evenodd;stroke:none;stroke-width:5.69160366000000018;marker:none;visibility:visible;display:inline;overflow:visible;enable-background:accumulate;font-family:Sans;-inkscape-font-specification:Sans"
       d="M 112.875 146.21875 C 110.8519 146.3715 109.03936 147.14235 107.4375 148.53125 C 105.65034 150.0794 104.39602 152.28492 103.78125 155.0625 C 103.16659 157.79439 103.44404 159.99159 104.59375 161.5625 C 105.75483 163.16763 107.60935 163.96875 110.125 163.96875 C 112.06018 163.96875 113.81285 163.44472 115.28125 162.5 C 116.74966 161.55508 117.93886 160.23887 118.78125 158.53125 L 119.15625 157.6875 L 114.75 157.6875 C 114.1922 158.62095 113.56645 159.26628 112.90625 159.6875 C 112.21188 160.13127 111.46732 160.375 110.625 160.375 C 109.93222 160.375 109.3335 160.2054 108.875 159.90625 C 108.63183 159.74205 108.43392 159.53172 108.25 159.28125 C 107.86303 158.76902 107.6875 158.07543 107.6875 157.1875 C 107.6875 156.97124 107.69605 156.70776 107.71875 156.46875 L 119.3125 156.46875 L 119.625 155.21875 C 119.8413 154.22852 119.9375 153.311 119.9375 152.46875 C 119.9375 150.94336 119.56089 149.66073 118.84375 148.625 C 117.69403 147.01987 115.94715 146.21875 113.625 146.21875 C 113.37098 146.21875 113.12345 146.19985 112.875 146.21875 z M 112.9375 149.78125 C 113.00289 149.77825 113.09005 149.78125 113.15625 149.78125 C 114.26045 149.78125 114.99921 150.18053 115.5 151 C 115.7049 151.34149 115.8125 151.81982 115.8125 152.46875 C 115.8125 152.58252 115.79335 152.75004 115.78125 152.875 C 115.78125 152.875 108.78125 152.87521 108.78125 152.875 C 109.13411 152.08974 109.5898 151.36745 110.25 150.84375 C 111.08237 150.17146 111.95695 149.82265 112.9375 149.78125 z "
       transform="translate(94.007646,416.625)"
       id="path3184" />
    <path
       style="font-size:medium;font-style:normal;font-variant:normal;font-weight:normal;font-stretch:normal;text-indent:0;text-align:start;text-decoration:none;line-height:normal;letter-spacing:normal;word-spacing:normal;text-transform:none;direction:ltr;block-progression:tb;writing-mode:lr-tb;text-anchor:start;baseline-shift:baseline;color:#000000;fill:#ffffff;fill-opacity:1;fill-rule:evenodd;stroke:none;stroke-width:5.69160366000000018;marker:none;visibility:visible;display:inline;overflow:visible;enable-background:accumulate;font-family:Sans;-inkscape-font-specification:Sans"
       d="M 131.40625 146.21875 C 129.38305 146.37149 127.5393 147.14235 125.9375 148.53125 C 124.15034 150.0794 122.95843 152.29639 122.34375 155.0625 C 122.19575 155.72271 122.07685 156.34575 122.03125 156.9375 C 122.00805 157.18799 122 157.44849 122 157.6875 C 122 159.23565 122.37372 160.53804 123.125 161.5625 C 124.28605 163.16763 126.14052 163.96875 128.65625 163.96875 C 130.59132 163.96875 132.34408 163.44471 133.8125 162.5 C 135.28092 161.55507 136.47006 160.23887 137.3125 158.53125 L 137.71875 157.6875 L 133.28125 157.6875 C 132.7235 158.62095 132.09792 159.26628 131.4375 159.6875 C 130.75454 160.13126 129.99862 160.375 129.15625 160.375 C 128.21001 160.375 127.49011 160.08898 126.96875 159.53125 C 126.90444 159.46023 126.83985 159.36095 126.78125 159.28125 C 126.47392 158.8715 126.3068 158.33645 126.25 157.6875 C 126.2386 157.52824 126.21875 157.35822 126.21875 157.1875 C 126.21875 157.1777 126.21843 157.1354 126.21875 157.125 C 126.22175 157.06213 126.20975 156.9973 126.21875 156.9375 C 126.22985 156.77824 126.2379 156.62821 126.25 156.46875 L 137.84375 156.46875 L 138.15625 155.1875 C 138.37255 154.20855 138.46875 153.29972 138.46875 152.46875 C 138.46875 150.94336 138.09218 149.66073 137.375 148.625 C 136.2253 147.01987 134.47858 146.21875 132.15625 146.21875 C 131.9024 146.21875 131.65454 146.19985 131.40625 146.21875 z M 131.46875 149.78125 C 131.53421 149.77825 131.6213 149.78125 131.6875 149.78125 C 132.55011 149.78125 133.21207 150.0402 133.6875 150.53125 C 133.80917 150.66164 133.93175 150.83361 134.03125 151 C 134.24755 151.34149 134.34375 151.81982 134.34375 152.46875 C 134.34375 152.58252 134.3246 152.75004 134.3125 152.875 C 134.3125 152.875 127.3125 152.87521 127.3125 152.875 C 127.67678 152.08974 128.12106 151.36745 128.78125 150.84375 C 129.61371 150.17146 130.48821 149.82265 131.46875 149.78125 z "
       transform="translate(94.007646,416.625)"
       id="path3182" />
    <path
       style="font-size:medium;font-style:normal;font-variant:normal;font-weight:normal;font-stretch:normal;text-indent:0;text-align:start;text-decoration:none;line-height:normal;letter-spacing:normal;word-spacing:normal;text-transform:none;direction:ltr;block-progression:tb;writing-mode:lr-tb;text-anchor:start;baseline-shift:baseline;color:#000000;fill:#ffffff;fill-opacity:1;fill-rule:evenodd;stroke:none;stroke-width:5.69160366000000018;marker:none;visibility:visible;display:inline;overflow:visible;enable-background:accumulate;font-family:Sans;-inkscape-font-specification:Sans"
       d="M 181.875 146.21875 C 180.09556 146.35547 178.44154 146.9767 176.9375 148.0625 C 174.88858 149.55368 173.49547 151.88668 172.8125 154.9375 C 172.5848 155.93921 172.5 156.84527 172.5 157.6875 C 172.5 159.24714 172.87378 160.54932 173.625 161.5625 C 174.78617 163.15616 176.58665 163.96875 179 163.96875 C 180.46842 163.96875 181.93528 163.62047 183.3125 162.9375 C 184.70138 162.25453 185.85927 161.26067 186.78125 160.03125 C 187.70341 158.80182 188.37703 157.09461 188.84375 155 C 189.44699 152.31362 189.17263 150.17593 188 148.59375 C 186.81628 147.01137 184.99284 146.21875 182.625 146.21875 C 182.36601 146.21875 182.12925 146.19915 181.875 146.21875 z M 181.625 149.84375 C 181.7993 149.82295 181.97662 149.84375 182.15625 149.84375 C 183.21475 149.84375 183.97649 150.23451 184.5 151.03125 C 185.04645 151.85093 185.10574 153.14483 184.71875 154.875 C 184.29753 156.76464 183.60395 158.16328 182.625 159.0625 C 181.65753 159.95043 180.6497 160.375 179.5 160.375 C 178.61385 160.375 177.91235 160.09984 177.40625 159.5625 C 177.31209 159.45922 177.2066 159.34163 177.125 159.21875 C 176.81756 158.74075 176.65625 158.08946 176.65625 157.28125 C 176.65625 156.68948 176.73553 156.02398 176.90625 155.25 C 177.31599 153.40587 178.02105 152.01294 179 151.125 C 179.81632 150.38564 180.68402 149.95537 181.625 149.84375 z "
       transform="translate(94.007646,416.625)"
       id="path3180" />
    <path
       style="font-size:medium;font-style:normal;font-variant:normal;font-weight:normal;font-stretch:normal;text-indent:0;text-align:start;text-decoration:none;line-height:normal;letter-spacing:normal;word-spacing:normal;text-transform:none;direction:ltr;block-progression:tb;writing-mode:lr-tb;text-anchor:start;baseline-shift:baseline;color:#000000;fill:#ffffff;fill-opacity:1;fill-rule:evenodd;stroke:none;stroke-width:5.69160366000000018;marker:none;visibility:visible;display:inline;overflow:visible;enable-background:accumulate;font-family:Sans;-inkscape-font-specification:Sans"
       d="M 244.375 146.21875 C 243.30306 146.28484 242.29084 146.47894 241.375 146.78125 C 240.1798 147.191 239.16896 147.78003 238.40625 148.53125 C 237.64355 149.28247 237.04348 150.25359 236.53125 151.4375 L 236.125 152.3125 L 240.4375 152.3125 C 240.89294 151.39033 241.41082 150.72778 241.96875 150.375 C 242.53776 150.02205 243.33331 149.84375 244.4375 149.84375 C 245.41369 149.84375 246.16561 150.00503 246.59375 150.34375 C 246.63865 150.38084 246.68045 150.4591 246.71875 150.5 C 246.73365 150.5156 246.7986 150.5443 246.8125 150.5625 C 246.99233 150.84463 247.00875 151.39257 246.84375 152.125 C 246.84375 152.125 246.7727 152.2613 246.75 152.375 C 245.70279 152.68245 244.25892 152.95977 242.3125 153.1875 L 239.78125 153.625 C 238.96157 153.82997 238.17448 154.11005 237.46875 154.53125 C 236.74029 154.95248 236.10895 155.54428 235.5625 156.25 C 235.00478 156.9672 234.66225 157.7598 234.46875 158.625 C 234.3778 159.0462 234.3125 159.45676 234.3125 159.84375 C 234.3125 160.85692 234.62122 161.74026 235.28125 162.46875 C 236.14644 163.45898 237.56505 163.96875 239.5 163.96875 C 240.61566 163.96875 241.72258 163.77069 242.78125 163.40625 C 243.49845 163.15597 244.29682 162.70822 245.09375 162.21875 C 245.11645 162.50346 245.08795 162.84346 245.15625 163.09375 L 245.34375 163.625 L 249.53125 163.625 L 249.25 162.6875 C 249.0905 162.17508 249.0284 161.6317 249.0625 161.0625 C 249.09673 160.64128 249.26581 159.50511 249.9375 156.5 L 250.71875 152.96875 L 251.125 150.375 C 251.125 149.49854 250.94672 148.79923 250.59375 148.21875 C 250.22952 147.60403 249.5982 147.083 248.6875 146.71875 C 247.83378 146.36583 246.71546 146.21875 245.28125 146.21875 C 244.96985 146.21875 244.67514 146.20025 244.375 146.21875 z M 245.90625 156.0625 C 245.66725 157.01869 245.40399 157.772 245.0625 158.25 C 244.59578 158.9215 243.94172 159.48782 243.15625 159.875 C 242.35932 160.27329 241.49316 160.4375 240.59375 160.4375 C 239.77426 160.4375 239.22201 160.31874 238.9375 160 C 238.9012 159.96152 238.87355 159.88465 238.84375 159.84375 C 238.82465 159.81615 238.7656 159.7788 238.75 159.75 C 238.7344 159.7209 238.73085 159.6557 238.71875 159.625 C 238.71295 159.6096 238.6925 159.5781 238.6875 159.5625 C 238.6735 159.51448 238.66325 159.4265 238.65625 159.375 C 238.65325 159.3489 238.65725 159.30825 238.65625 159.28125 C 238.65604 159.27225 238.65625 159.259 238.65625 159.25 C 238.65625 159.13623 238.6648 158.98032 238.6875 158.84375 C 238.76724 158.50206 238.93723 158.22201 239.1875 157.9375 C 239.44946 157.64153 239.76926 157.40928 240.15625 157.25 C 240.60021 157.07926 241.36754 156.90928 242.4375 156.75 C 243.87169 156.55629 244.93878 156.32446 245.90625 156.0625 z "
       transform="translate(94.007646,416.625)"
       id="path3178" />
    <path
       style="font-size:medium;font-style:normal;font-variant:normal;font-weight:normal;font-stretch:normal;text-indent:0;text-align:start;text-decoration:none;line-height:normal;letter-spacing:normal;word-spacing:normal;text-transform:none;direction:ltr;block-progression:tb;writing-mode:lr-tb;text-anchor:start;baseline-shift:baseline;color:#000000;fill:#ffffff;fill-opacity:1;fill-rule:evenodd;stroke:none;stroke-width:5.69160366000000018;marker:none;visibility:visible;display:inline;overflow:visible;enable-background:accumulate;font-family:Sans;-inkscape-font-specification:Sans"
       d="m 356.4139,562.84375 c 0.16067,-0.0198 0.33815,0 0.5,0 1.03593,0 2.02681,0.31999 2.9375,0.96875 l 0.53125,0.375 -2.21875,3.625 -0.59375,-0.40625 c -0.44398,-0.2845 -0.91698,-0.4375 -1.40625,-0.4375 -0.43269,0 -0.86022,0.16449 -1.28125,0.4375 -0.43269,0.28472 -0.74675,0.64402 -1.03125,1.15625 -0.46674,0.87646 -0.82349,1.87882 -1.0625,2.9375 l -1.9375,8.75 -4.15625,0 3.8125,-17.09375 3.84375,0 c 0,0 -0.0794,0.52525 -0.125,0.71875 0.18203,-0.13658 0.36051,-0.33502 0.53125,-0.4375 0.54249,-0.32901 1.08289,-0.5235 1.65625,-0.59375 z"
       id="path3176" />
    <path
       style="font-size:medium;font-style:normal;font-variant:normal;font-weight:normal;font-stretch:normal;text-indent:0;text-align:start;text-decoration:none;line-height:normal;letter-spacing:normal;word-spacing:normal;text-transform:none;direction:ltr;block-progression:tb;writing-mode:lr-tb;text-anchor:start;baseline-shift:baseline;color:#000000;fill:#ffffff;fill-opacity:1;fill-rule:evenodd;stroke:none;stroke-width:5.69160366000000018;marker:none;visibility:visible;display:inline;overflow:visible;enable-background:accumulate;font-family:Sans;-inkscape-font-specification:Sans"
       d="M 274.625 146.21875 C 272.60379 146.3715 270.73687 147.14235 269.125 148.53125 C 267.33784 150.0794 266.14597 152.28492 265.53125 155.0625 C 264.92803 157.79439 265.22532 159.99159 266.375 161.5625 C 267.53597 163.16763 269.35936 163.96875 271.875 163.96875 C 273.82161 163.96875 275.55135 163.44471 277.03125 162.5 C 278.4882 161.55507 279.68881 160.23887 280.53125 158.53125 L 280.9375 157.6875 L 276.5 157.6875 C 275.9308 158.62095 275.31667 159.26628 274.65625 159.6875 C 273.962 160.13127 273.21743 160.375 272.375 160.375 C 271.51338 160.375 270.82137 160.11882 270.3125 159.65625 C 270.27316 159.61915 270.19365 159.57095 270.15625 159.53125 C 270.09182 159.46022 270.02735 159.36095 269.96875 159.28125 C 269.59323 158.76902 269.375 158.07543 269.375 157.1875 C 269.375 156.97124 269.44605 156.70776 269.46875 156.46875 L 281.0625 156.46875 L 281.34375 155.21875 C 281.56012 154.22852 281.6875 153.311 281.6875 152.46875 C 281.6875 150.94336 281.32223 149.66073 280.59375 148.625 C 279.45535 147.01987 277.69734 146.21875 275.375 146.21875 C 275.12116 146.21875 274.87311 146.19985 274.625 146.21875 z M 274.84375 149.78125 C 274.87615 149.78026 274.87365 149.78164 274.90625 149.78125 C 276.01044 149.79272 276.76053 150.19179 277.25 151 C 277.4663 151.34149 277.5625 151.81982 277.5625 152.46875 C 277.5625 152.58252 277.54335 152.75004 277.53125 152.875 C 277.53125 152.875 270.5625 152.87521 270.5625 152.875 C 270.92673 152.08974 271.38251 151.36745 272.03125 150.84375 C 272.89149 150.1491 273.83532 149.81225 274.84375 149.78125 z "
       transform="translate(94.007646,416.625)"
       id="path3174" />
    <path
       style="font-size:medium;font-style:normal;font-variant:normal;font-weight:normal;font-stretch:normal;text-indent:0;text-align:start;text-decoration:none;line-height:normal;letter-spacing:normal;word-spacing:normal;text-transform:none;direction:ltr;block-progression:tb;writing-mode:lr-tb;text-anchor:start;baseline-shift:baseline;color:#000000;fill:#ffffff;fill-opacity:1;fill-rule:evenodd;stroke:none;stroke-width:5.69160366000000018;marker:none;visibility:visible;display:inline;overflow:visible;enable-background:accumulate;font-family:Sans;-inkscape-font-specification:Sans"
       d="m 306.32015,563.15625 4.25,0 c 0,0 0.51978,10.13325 0.53125,10.28125 0.17073,-0.36286 0.29569,-0.67542 0.3125,-0.71875 l 4.65625,-9.5625 3.875,0 c 0,0 0.375,10.00552 0.375,10.0625 0.1137,-0.20477 5.28125,-10.0625 5.28125,-10.0625 l 4.21875,0 -9.25,17.09375 -3.8125,0 c 0,0 -0.38349,-9.25755 -0.40625,-9.78125 -1.57091,3.22154 -4.75,9.78125 -4.75,9.78125 l -3.90625,0 -1.375,-17.09375 z"
       id="path3172" />
  </g>
</svg>
