<?xml version="1.0" encoding="UTF-8" standalone="no"?>
<!-- Created with Inkscape (http://www.inkscape.org/) -->

<svg
   xmlns:dc="http://purl.org/dc/elements/1.1/"
   xmlns:cc="http://creativecommons.org/ns#"
   xmlns:rdf="http://www.w3.org/1999/02/22-rdf-syntax-ns#"
   xmlns:svg="http://www.w3.org/2000/svg"
   xmlns="http://www.w3.org/2000/svg"
   version="1.1"
   width="566.28577"
   height="185.75"
   id="svg3253">
  <defs
     id="defs3255" />
  <metadata
     id="metadata3258">
    <rdf:RDF>
      <cc:Work
         rdf:about="">
        <dc:format>image/svg+xml</dc:format>
        <dc:type
           rdf:resource="http://purl.org/dc/dcmitype/StillImage" />
        <dc:title></dc:title>
      </cc:Work>
    </rdf:RDF>
  </metadata>
  <g
     transform="translate(-94.007646,-416.625)"
     id="layer1">
    <path
       d="m 444.70354,578.7698 c 0.46218,1.18789 0.92415,2.37397 1.40551,3.53395 0.74134,1.57605 1.59801,3.08465 2.62821,4.49293 5.56446,7.56392 14.88329,11.70546 26.71477,12.73665 0,0 12.72694,0 12.72694,0 4.02403,-0.31399 8.24075,-0.89922 12.6114,-1.75413 7.5378,-1.47396 15.52827,-3.73813 23.82679,-6.76401 6.28641,-2.29207 12.74614,-5.00396 19.30201,-8.15588 14.27689,-6.84395 29.02544,-15.67071 43.49482,-26.32303 4.76537,-3.50526 9.33801,-7.10193 13.72806,-10.75915 4.02402,-3.34818 7.88442,-6.74858 11.57171,-10.18637 10.29104,-9.91772 18.06012,-19.99034 22.45966,-28.83472 4.58235,-9.2102 5.49699,-17.08494 1.74244,-22.04576 -2.30077,-3.04506 -6.15167,-4.67693 -11.10953,-5.06093 22.33462,-16.75868 35.35022,-37.08794 30.68122,-49.9053 -1.48267,-4.09049 -4.74617,-7.14228 -9.42488,-8.82993 -2.07937,-0.74786 -4.41873,-1.2217 -6.96997,-1.43737 0,0 -6.87362,0 -6.87362,0 -9.59799,0.69228 -23.55554,4.12908 -35.39672,9.93215"
       id="path3618"
       style="fill:#600000;fill-opacity:0;fill-rule:evenodd;stroke:#ffffff;stroke-width:5.69160366;stroke-linecap:butt;stroke-linejoin:miter;stroke-miterlimit:4;stroke-opacity:1" />
    <path
       d="m 133.59987,423.92952 c 0,0 -39.592224,172.74016 -39.592224,172.74016 0.0114,0 104.150594,0 104.173374,0 45.79959,0 183.16282,0 183.16282,0 2e-4,0 95.26323,0 95.26323,0 -11.34894,-0.99044 -20.30906,-4.97449 -25.64777,-12.23688 -0.99023,-1.34339 -1.80853,-2.79044 -2.52554,-4.30437 -0.45543,-1.11548 -0.88359,-2.24103 -1.31628,-3.37925 -1.1384,-3.62001 -1.59228,-7.63671 -1.38731,-11.91694 0.56922,-11.92963 6.16691,-26.11985 15.86541,-40.9796 10.30172,-15.79179 25.23229,-32.34332 43.71859,-47.70263 4.14351,-3.43997 8.4279,-6.83701 12.91272,-10.13831 5.54368,-4.07842 11.13011,-7.83476 16.71911,-11.34754 20.59218,-12.96437 41.1333,-22.03588 59.3351,-26.64374 -17.39359,5.67445 -36.9342,15.30785 -56.24017,28.42239 -0.69444,0.4689 -1.38018,0.94927 -2.06336,1.42292 -10.71147,7.42185 -20.41569,15.30411 -28.88475,23.26431 -27.25154,25.62363 -41.65544,52.17497 -35.11004,67.73015 0.46672,1.06996 1.02306,2.09165 1.67181,3.05933 7.03486,10.34722 24.4696,12.13576 46.56443,6.58079 1.50265,-0.37551 3.0053,-0.80108 4.55326,-1.24504 7.05762,-2.03745 14.5507,-4.7895 22.26853,-8.1816 1.85543,-0.81969 3.73082,-1.66192 5.62046,-2.56133 0.1935,-0.091 0.37552,-0.18202 0.56901,-0.2845 24.36018,-12.10374 43.08131,-26.03081 47.13363,-34.39859 0.88795,-1.82019 1.10141,-3.3721 0.49798,-4.58888 -2.89134,-5.86242 -23.12343,-1.9019 -47.63161,8.7152 -1.96917,0.85389 -3.9613,1.73235 -5.97618,2.66797 1.63916,-1.52184 3.34541,-3.04962 5.08686,-4.55326 2.77758,-2.39277 5.65329,-4.73253 8.71537,-7.04339 4.79227,-3.62891 9.63716,-6.90962 14.40688,-9.81798 22.33383,-16.84949 33.6246,-32.7881 31.26822,-38.70295 -0.44396,-1.11447 -1.38867,-1.88094 -2.84583,-2.34787 -4.65574,-1.48088 -13.15331,0.28669 -23.47778,4.51785 -8.51478,3.49243 -18.29437,8.67188 -28.20912,15.11833 0,0 -1.35169,0.88934 -1.35169,0.88934 0,0 -0.2491,0.1423 -0.2491,0.1423 0,0 -4.76653,3.16595 -4.76653,3.16595 0,0 2.739,-5.01563 2.739,-5.01563 4.06379,-7.43907 10.68318,-15.20063 18.92452,-22.41079 6.04444,-5.27165 12.94992,-10.23861 20.38305,-14.58474 2.8116,-1.64609 5.61906,-3.17485 8.43068,-4.55326 2.88006,-1.40709 5.76132,-2.65749 8.57294,-3.77077 8.16872,-3.23047 17.14231,-7.31008 23.94253,-7.84387 -0.61928,0 -20.2784,2.11678 -20.2784,2.11678 0,0 -64.38634,0 -64.38634,0 0,0 -283.9042,0 -283.9042,0 0,0 -126.65529,0 -126.65529,0 z m 308.39515,0.24908 c -1.11547,17.02579 2.18562,41.96348 9.67574,69.65087 1.33189,4.92661 2.78174,9.94046 4.3754,15.01168 0.99042,3.13154 2.01211,6.214 3.05931,9.24879 -0.61472,0.90378 -1.23357,1.80199 -1.81427,2.70358 -9.34553,14.3222 -14.8081,27.85754 -16.18551,39.6277 -3.95003,-13.2273 -6.92367,-27.71548 -8.60855,-43.07835 -0.478,-4.40172 -0.85213,-8.75436 -1.1026,-13.05498 -1.84414,-31.23894 2.23389,-59.55708 10.60048,-80.10929 z m -186.5066,22.16151 c 0.21308,-0.005 0.42319,0 0.64024,0 0,0 42.08238,0 42.08238,0 3.59707,0 6.37881,0.67427 8.35946,2.02774 1.96918,1.3614 2.70775,3.12243 2.24102,5.26472 0,0 -5.01563,22.65968 -5.01563,22.65968 0,0 -14.83382,0 -14.83382,0 0,0 4.87338,-22.05486 4.87338,-22.05486 0,0 -37.13759,0 -37.13759,0 0,0 -13.41089,60.61538 -13.41089,60.61538 0,0 -4.83798,21.9484 -4.83798,21.9484 0,0 37.10216,0 37.10216,0 0,0 0.0357,-0.14229 0.0357,-0.14229 0,0 7.43471,-33.58068 7.43471,-33.58068 0,0 -17.43056,0 -17.43056,0 0,0 1.672,-7.57678 1.672,-7.57678 0,-1.9e-4 32.26421,0 32.26421,0 0,-1.9e-4 -9.24879,41.90433 -9.24879,41.90433 -0.12531,0.59652 -0.34445,1.13684 -0.64043,1.67202 -0.76271,1.38868 -2.09303,2.57814 -3.94844,3.55729 -2.57261,1.35447 -5.65172,2.02754 -9.249,2.02754 0,0 -42.04657,0 -42.04657,0 -3.59707,0 -6.37881,-0.67307 -8.35965,-2.02754 -1.96918,-1.35467 -2.71912,-3.08465 -2.24101,-5.22931 0,0 18.53337,-83.77323 18.53337,-83.77323 0.478,-2.14229 1.96918,-3.90333 4.55306,-5.26472 0.0912,-0.0491 0.1937,-0.0601 0.28471,-0.10659 2.35854,-1.18135 5.12643,-1.84552 8.32403,-1.9211 z m 65.95152,0 c -2.1e-4,0 52.96736,0 52.96736,0 3.55156,0 6.34319,0.67427 8.32405,2.02774 1.99192,1.3614 2.75463,3.12243 2.27663,5.26472 0,0 -9.88922,44.67914 -9.88922,44.67914 -0.46672,2.12865 -1.99351,3.86535 -4.58888,5.22912 -2.59536,1.36831 -5.65032,2.06315 -9.21337,2.06315 0,0 -38.48947,0 -38.48947,0 0,0 -7.43452,33.54487 -7.43452,33.54487 0,0 -1.20945,5.5138 -1.20945,5.5138 0,0 -14.51369,0 -14.51369,0 0,0 1.1028,-4.98022 1.1028,-4.98022 0,0 20.66776,-93.34232 20.66776,-93.34232 z m 73.17255,0 c 0,0 14.5135,0 14.5135,0 0,0 -16.43441,74.23994 -16.43441,74.23994 0,0 -3.59291,16.22112 -3.59291,16.22112 0,0 34.7189,0 34.7189,0 0.36423,2.66245 0.7896,5.27761 1.24505,7.86148 0,0 -52.22049,0 -52.22049,0 0,0 4.1263,-18.64 4.1263,-18.64 0,0 17.64406,-79.68254 17.64406,-79.68254 z m -60.40209,7.89728 c 0,0 -9.64031,43.4695 -9.64031,43.4695 0,0 36.17741,0 36.17741,0 0,0 9.60452,-43.4695 9.60452,-43.4695 0,0 -36.14162,0 -36.14162,0 z m -77.14316,102.59567 c 0.14213,-0.005 0.28392,0 0.42696,0 1.68467,0 3.15606,0.29577 4.33978,0.85371 1.26366,0.59195 2.16723,1.47119 2.66799,2.63237 0.48947,1.12692 0.61747,2.40601 0.35572,3.80618 0,0 -0.10659,0.5336 -0.10659,0.5336 0,0 -4.16192,0 -4.16192,0 -1.9e-4,0 0.0354,-0.49798 0.0354,-0.49798 0.10763,-0.97836 -0.0139,-1.74759 -0.39113,-2.27664 -0.0492,-0.0662 -0.12064,-0.1539 -0.17807,-0.21347 -0.0938,-0.096 -0.23485,-0.20537 -0.35554,-0.28451 -0.58246,-0.367 -1.49334,-0.5692 -2.66797,-0.5692 -1.55964,0 -2.72495,0.27164 -3.52169,0.81809 -0.77417,0.53499 -1.26364,1.13268 -1.42292,1.84988 -0.15946,0.72847 0.10225,1.11131 0.2845,1.31607 0.005,0.005 0.0288,0.0293 0.0355,0.0355 0.23069,0.19646 1.03159,0.65746 3.5217,1.24507 2.25387,0.54644 3.74643,1.0373 4.58887,1.45852 1.27493,0.64874 2.16564,1.48979 2.63236,2.52552 0.46673,1.02467 0.56922,2.22401 0.2845,3.52169 -0.2845,1.26366 -0.92908,2.42898 -1.88529,3.5217 -0.94472,1.09271 -2.14704,1.95789 -3.59291,2.56132 -1.43419,0.59196 -3.00787,0.92475 -4.62429,0.92475 -2.04911,0 -3.69401,-0.31003 -4.98022,-0.92475 -1.34319,-0.63745 -2.31224,-1.64351 -2.88125,-2.95266 -0.54647,-1.27474 -0.66318,-2.722 -0.35593,-4.30419 0,0 0.10676,-0.49798 0.10676,-0.49798 0,0 4.0909,0 4.0909,0 0,0 -0.0355,0.49798 -0.0355,0.49798 -0.10243,0.94472 -0.001,1.70743 0.24889,2.27664 0.2392,0.54646 0.69444,0.99893 1.42293,1.35169 0.77417,0.37572 1.74164,0.56921 2.84583,0.56921 0.99042,0 1.89538,-0.16638 2.70359,-0.46236 0.79673,-0.28472 1.43004,-0.66023 1.88529,-1.13842 0.44397,-0.478 0.70434,-0.9833 0.8181,-1.52957 0.11387,-0.48947 0.0868,-0.90357 -0.10659,-1.24505 -0.21625,-0.36423 -0.64459,-0.68732 -1.31628,-0.96035 0,-2e-4 -3.48608,-1.03177 -3.48608,-1.03177 -1.94642,-0.48948 -3.25696,-0.95621 -4.01966,-1.42293 -1.03593,-0.61452 -1.7828,-1.40294 -2.17,-2.34765 -0.38699,-0.93345 -0.42814,-1.968 -0.17767,-3.09493 0.26176,-1.20667 0.84364,-2.35478 1.74305,-3.37924 0.91069,-1.03594 2.08591,-1.8485 3.48607,-2.38347 1.23793,-0.46415 2.54057,-0.7364 3.91283,-0.78249 z m 37.35126,0.0711 c 0.22514,-0.0173 0.43685,0 0.67585,0 0,0 2.56113,0.28451 2.56113,0.28451 0,0 0.85372,0.0712 0.85372,0.0712 2e-4,0 -1.24487,3.16595 -1.24487,3.16595 0,0 -0.24908,0.49799 -0.24908,0.49799 0,0 -1.95652,-0.17786 -1.95652,-0.17786 -0.57771,0 -1.00209,0.0893 -1.28067,0.28471 -0.0184,0.0139 -0.0541,0.0562 -0.0711,0.0711 -0.0374,0.0328 -0.10018,0.0898 -0.14229,0.14247 -0.17142,0.22457 -0.37987,0.626 -0.5336,1.35171 0,0 -0.074,0.30724 -0.1423,0.5692 0.8992,0 3.05912,0 3.05912,0 0,0 -0.78249,3.52169 -0.78249,3.52169 0,0 -2.23687,0 -2.98809,0 -0.22773,1.02445 -3.02371,13.55295 -3.02371,13.55295 0,0 -4.12651,0 -4.12651,0 0,0 2.68221,-12.03903 3.02371,-13.55295 -0.69445,0 -2.38328,0 -2.38328,0 0,0 0.78249,-3.52169 0.78249,-3.52169 0,0 1.69892,0 2.34787,0 0.11369,-0.48947 0.28448,-1.1028 0.28448,-1.1028 0.25049,-1.13842 0.51223,-1.95651 0.85373,-2.52573 0.46692,-0.78545 1.12556,-1.4427 1.95651,-1.92089 0.68456,-0.39768 1.55014,-0.6355 2.52572,-0.71146 z m 9.8536,0.17786 c 0,0 -1.07866,4.85359 -1.35169,6.08302 0.79674,0 2.66778,0 2.66778,0 0,0 -0.78249,3.5217 -0.78249,3.5217 0,0 -1.96226,0 -2.66798,0 -0.21624,0.97874 -1.92089,8.57294 -1.92089,8.57294 0,0 -0.1423,0.91206 -0.1423,1.17382 2.1e-4,0.009 -7.8e-4,0.0291 0,0.0355 5.9e-4,0.003 -7.8e-4,0.0333 0,0.0355 9.9e-4,0.002 0.034,-10e-4 0.0354,0 0,0 0.42694,0.0353 0.42694,0.0353 0,0 1.95652,-0.14229 1.95652,-0.14229 0,0 -0.21348,3.16595 -0.21348,3.16595 0,0 0.0355,0.5692 0.0355,0.5692 0,0 -2.81023,0.32012 -2.81023,0.32012 -1.11547,0 -1.93377,-0.18202 -2.52572,-0.5692 -0.62599,-0.40974 -0.99023,-0.95322 -1.13822,-1.63621 -0.0227,-0.12531 -0.0712,-0.30745 -0.0712,-0.5692 0,-0.51223 0.0967,-1.3788 0.42696,-2.88145 0,0 1.49533,-6.69893 1.81407,-8.11036 -0.53499,0 -1.95632,0 -1.95632,0 0,0 0.78249,-3.5217 0.78249,-3.5217 0,0 1.38731,0 1.95651,0 0.18221,-0.81968 0.81811,-3.62853 0.81811,-3.62853 0,0 3.3084,-1.74303 3.3084,-1.74303 0,0 1.35169,-0.71146 1.35169,-0.71146 z m -131.08476,0.1423 c 0,0 16.00763,0 16.00763,0 0,0 -0.88931,3.98427 -0.88931,3.98427 0,0 -10.67886,0 -11.70336,0 -0.18209,0.80821 -0.91204,4.0808 -1.17386,5.26472 1.47982,0 10.13814,0 10.13814,0 0,0 -0.88932,3.98406 -0.88932,3.98406 0,0 -9.11365,0 -10.13815,0 -0.21628,0.99042 -2.16993,9.78237 -2.16993,9.78237 0,0 -4.30429,0 -4.30429,0 0,0 5.12245,-23.01542 5.12245,-23.01542 z m 21.45025,5.62065 c 0.1606,-0.0198 0.3361,0 0.49797,0 1.02449,0 1.97077,0.31161 2.88141,0.96037 0,0 0.56916,0.39134 0.56916,0.39134 0,0 -2.20551,3.62832 -2.20551,3.62832 0,0 -0.60475,-0.42696 -0.60475,-0.42696 -0.44391,-0.2845 -0.92199,-0.42675 -1.42287,-0.42675 -0.43257,0 -0.83523,0.15374 -1.24503,0.42675 -0.43257,0.28472 -0.794,0.66181 -1.06715,1.17404 -0.4781,0.87646 -0.82818,1.85818 -1.06722,2.91686 0,0 -1.92094,8.7508 -1.92094,8.7508 0,0 -4.12639,0 -4.12639,0 0,0 3.8063,-17.07465 3.8063,-17.07465 0,0 3.84182,0 3.84182,0 0,0 -0.13239,0.51778 -0.1779,0.71128 0.18218,-0.13658 0.37422,-0.32429 0.53364,-0.42677 0.55133,-0.32901 1.1337,-0.53438 1.70746,-0.60463 z m 12.23693,0 c 0.24845,-0.0189 0.49302,0 0.74704,0 2.32215,0 4.07941,0.81376 5.22913,2.41889 0.71714,1.03573 1.1028,2.31641 1.1028,3.8418 0,0.84225 -0.10382,1.74879 -0.32016,2.73902 0,0 -0.32016,1.24504 -0.32016,1.24504 0,0 -10.43556,0 -11.59668,0 -0.0227,0.23901 -0.0355,0.49521 -0.0355,0.71147 0,0.88793 0.18218,1.58653 0.56915,2.09876 0.18392,0.25047 0.39714,0.47603 0.64031,0.64023 0.4585,0.29915 1.05034,0.46258 1.74312,0.46258 0.84232,0 1.58224,-0.23208 2.27661,-0.67585 0.6602,-0.42122 1.29198,-1.09429 1.84978,-2.02774 0,0 4.41098,0 4.41098,0 0,0 -0.39125,0.85371 -0.39125,0.85371 -0.84239,1.70762 -2.01774,3.03934 -3.48615,3.98426 -1.4684,0.94472 -3.22285,1.45834 -5.15803,1.45834 -2.51565,0 -4.3882,-0.81376 -5.54928,-2.41889 -1.14971,-1.57091 -1.3973,-3.74228 -0.78264,-6.47417 0.61477,-2.77758 1.84125,-4.99724 3.62841,-6.54539 1.60186,-1.3889 3.41952,-2.15931 5.44262,-2.31206 z m 18.53336,0 c 0.24829,-0.0189 0.49302,0 0.74687,0 2.32233,0 4.07961,0.81376 5.22931,2.41889 0.71718,1.03573 1.10259,2.31641 1.10259,3.8418 0,0.83097 -0.10381,1.72445 -0.32012,2.7034 0,0 -0.3201,1.28066 -0.3201,1.28066 0,0 -10.43556,0 -11.59663,0 -0.0121,0.15946 -0.0243,0.30311 -0.0355,0.46237 -0.009,0.0598 0.003,0.15061 0,0.21348 -3.2e-4,0.0104 0,0.0257 0,0.0355 0,0.17072 0.0241,0.33872 0.0355,0.49798 0.0568,0.64895 0.22625,1.19104 0.53358,1.60079 0.0586,0.0797 0.11352,0.17807 0.17783,0.24909 0.52136,0.55773 1.25927,0.85371 2.20551,0.85371 0.84237,0 1.5936,-0.23208 2.27656,-0.67584 0.66042,-0.42122 1.29214,-1.0943 1.84989,-2.02775 0,0 4.44642,0 4.44642,0 0,0 -0.42676,0.85371 -0.42676,0.85371 -0.84244,1.70762 -2.01766,3.03934 -3.48608,3.98427 -1.46842,0.94471 -3.22294,1.45833 -5.15801,1.45833 -2.51573,0 -4.38828,-0.81376 -5.54933,-2.41889 -0.75128,-1.02446 -1.10274,-2.32927 -1.10274,-3.87742 0,-0.23901 0.0121,-0.49659 0.0355,-0.74708 0.0456,-0.59175 0.13658,-1.18946 0.28458,-1.84967 0.61468,-2.76611 1.80565,-4.99724 3.59281,-6.54539 1.6018,-1.3889 3.45503,-2.15931 5.47823,-2.31205 z m 50.47724,0 c 0.25425,-0.0196 0.48809,0 0.74708,0 2.36784,0 4.18765,0.8009 5.37137,2.38328 1.17263,1.58218 1.45714,3.71657 0.8539,6.40295 -0.46672,2.09461 -1.14118,3.7864 -2.06334,5.01583 -0.92198,1.22942 -2.0972,2.23389 -3.48608,2.91686 -1.37722,0.68297 -2.83576,1.03159 -4.30418,1.03159 -2.41335,0 -4.21039,-0.82523 -5.37156,-2.41889 -0.75122,-1.01318 -1.13821,-2.31778 -1.13821,-3.87742 0,-0.84223 0.0924,-1.73729 0.3201,-2.739 0.68297,-3.05082 2.0774,-5.37433 4.12632,-6.86551 1.50404,-1.0858 3.16516,-1.71297 4.9446,-1.84969 z m 62.50105,0 c 0.30014,-0.0185 0.57792,0 0.88932,0 1.43421,0 2.56114,0.14507 3.41486,0.49799 0.9107,0.36425 1.55666,0.87923 1.92089,1.49395 0.35297,0.58048 0.53361,1.29352 0.53361,2.16998 0,0 -0.42675,2.59676 -0.42675,2.59676 0,0 -0.7827,3.52169 -0.7827,3.52169 -0.67169,3.00511 -0.81948,4.13204 -0.85371,4.55326 -0.0341,0.5692 0.0184,1.12398 0.17786,1.6364 0,0 0.28451,0.92474 0.28451,0.92474 0,0 -4.19754,0 -4.19754,0 0,0 -0.17786,-0.53359 -0.17786,-0.53359 -0.0683,-0.25029 -0.0484,-0.56901 -0.0711,-0.85372 -0.79693,0.48947 -1.59505,0.92355 -2.31225,1.17383 -1.05867,0.36444 -2.15713,0.56922 -3.27279,0.56922 -1.93495,0 -3.36796,-0.50372 -4.23315,-1.49395 -0.66003,-0.72849 -0.96035,-1.6192 -0.96035,-2.63237 0,-0.38699 0.0513,-0.78823 0.14229,-1.20943 0.1935,-0.8652 0.54508,-1.66629 1.1028,-2.38349 0.54645,-0.70572 1.19243,-1.2862 1.92089,-1.70743 0.70573,-0.4212 1.49257,-0.71995 2.31225,-0.92492 0,0 2.52573,-0.42676 2.52573,-0.42676 1.94642,-0.22773 3.39922,-0.51085 4.44643,-0.8183 0.0227,-0.1137 0.0712,-0.24889 0.0712,-0.24889 0.165,-0.73243 0.14438,-1.28304 -0.0355,-1.56517 -0.0139,-0.0182 -0.0562,-0.0556 -0.0712,-0.0712 -0.0383,-0.0409 -0.0974,-0.10521 -0.14229,-0.1423 -0.42814,-0.33872 -1.1582,-0.49798 -2.13439,-0.49798 -1.10419,0 -1.92089,0.18063 -2.4899,0.53358 -0.55793,0.35278 -1.07432,0.99874 -1.52976,1.92091 0,0 -4.30418,0 -4.30418,0 0,0 0.39115,-0.85371 0.39115,-0.85371 0.51223,-1.18391 1.12278,-2.16584 1.88548,-2.91706 0.76271,-0.75122 1.79289,-1.3333 2.98809,-1.74305 0.91584,-0.30231 1.91616,-0.50292 2.9881,-0.56901 z m 18.0352,0 c 0.16067,-0.0198 0.33614,0 0.49799,0 1.03593,0 2.00637,0.31161 2.91706,0.96037 0,0 0.53359,0.39134 0.53359,0.39134 0,0 -2.20561,3.62832 -2.20561,3.62832 0,0 -0.60461,-0.42696 -0.60461,-0.42696 -0.44398,-0.2845 -0.89804,-0.42675 -1.38731,-0.42675 -0.43269,0 -0.85965,0.15374 -1.28068,0.42675 -0.43269,0.28472 -0.74706,0.66181 -1.03156,1.17404 -0.46674,0.87646 -0.8282,1.85818 -1.06721,2.91686 0,0 -1.9565,8.7508 -1.9565,8.7508 0,0 -4.12652,0 -4.12652,0 0,0 3.80639,-17.07465 3.80639,-17.07465 0,0 3.84182,0 3.84182,0 0,0 -0.0967,0.51778 -0.1423,0.71128 0.18203,-0.13658 0.36287,-0.32429 0.53361,-0.42677 0.54249,-0.32901 1.09845,-0.53438 1.67181,-0.60463 z m 12.20145,0 c 0.24811,-0.0189 0.49305,0 0.74689,0 2.32234,0 4.0909,0.81376 5.2293,2.41889 0.72848,1.03573 1.10261,2.31641 1.10261,3.8418 0,0.84225 -0.13935,1.74879 -0.35572,2.73902 0,0 -0.28451,1.24504 -0.28451,1.24504 0,0 -10.44694,0 -11.59665,0 -0.0227,0.23901 -0.0712,0.49521 -0.0712,0.71147 0,0.88793 0.19368,1.58653 0.5692,2.09876 0.0586,0.0797 0.14905,0.17807 0.21348,0.2491 0.0374,0.0397 0.10295,0.10521 0.14229,0.1423 0.50887,0.46257 1.20155,0.71146 2.06317,0.71146 0.84243,0 1.58238,-0.23208 2.27663,-0.67585 0.66042,-0.42122 1.28067,-1.09429 1.84987,-2.02774 0,0 4.44663,0 4.44663,0 0,0 -0.42695,0.85371 -0.42695,0.85371 -0.84244,1.70762 -2.02913,3.03934 -3.48608,3.98427 -1.4799,0.94471 -3.21147,1.45833 -5.15808,1.45833 -2.51564,0 -4.35266,-0.81376 -5.51363,-2.41889 -1.14968,-1.57091 -1.42152,-3.74228 -0.8183,-6.47417 0.61472,-2.77758 1.80576,-4.99724 3.59292,-6.54539 1.61187,-1.3889 3.45699,-2.15931 5.4782,-2.31206 z m -62.28757,0.32012 c 0,0 4.23316,0 4.23316,0 0,0 0.52211,10.13237 0.53358,10.28037 0.17073,-0.36286 0.30332,-0.66813 0.32013,-0.71146 0,0 4.66009,-9.56891 4.66009,-9.56891 0,0 3.87742,0 3.87742,0 0,0 0.35574,10.00991 0.35574,10.06689 0.1137,-0.20477 5.30013,-10.06689 5.30013,-10.06689 0,0 4.19754,0 4.19754,0 0,0 -9.24878,17.07465 -9.24878,17.07465 0,0 -3.80618,0 -3.80618,0 0,0 -0.3686,-9.25867 -0.39136,-9.78237 -1.57091,3.22154 -4.76674,9.78237 -4.76674,9.78237 0,0 -3.91304,0 -3.91304,0 0,0 -1.35169,-17.07465 -1.35169,-17.07465 z m -99.38959,3.23699 c -0.98055,0.0414 -1.87114,0.39491 -2.70351,1.0672 -0.6602,0.5237 -1.1056,1.24227 -1.45846,2.02753 0,2.1e-4 7.00775,0 7.00775,0 0.0121,-0.12496 0.0355,-0.27738 0.0355,-0.39115 0,-0.64893 -0.11525,-1.15265 -0.32015,-1.49414 -0.50079,-0.81947 -1.24358,-1.20944 -2.34778,-1.20944 -0.0662,0 -0.14802,-0.003 -0.21341,0 z m 18.53324,0 c -0.98054,0.0414 -1.87104,0.39491 -2.7035,1.0672 -0.66019,0.5237 -1.09417,1.24227 -1.45845,2.02753 0,2.1e-4 7.00778,0 7.00778,0 0.0121,-0.12496 0.0357,-0.27738 0.0357,-0.39115 0,-0.64893 -0.10382,-1.15265 -0.32013,-1.49414 -0.0995,-0.16639 -0.23405,-0.33198 -0.35572,-0.46237 -0.47543,-0.49105 -1.12951,-0.74707 -1.99212,-0.74707 -0.0662,0 -0.14802,-0.003 -0.21348,0 z m 143.3574,0 c -1.00843,0.031 -1.95018,0.37255 -2.81042,1.0672 -0.64874,0.5237 -1.0941,1.24227 -1.45833,2.02753 0,2.1e-4 6.97215,0 6.97215,0 0.0121,-0.12496 0.0357,-0.27738 0.0357,-0.39115 0,-0.64893 -0.10382,-1.15265 -0.32012,-1.49414 -0.48947,-0.80821 -1.24368,-1.19797 -2.34787,-1.20944 -0.0326,3.9e-4 -0.0387,-9.9e-4 -0.0711,0 z m -93.20006,0.0712 c -0.94098,0.11162 -1.81605,0.54111 -2.63237,1.28047 -0.97895,0.88794 -1.68903,2.28237 -2.09877,4.1265 -0.17072,0.77398 -0.24908,1.43578 -0.24908,2.02755 0,0.80821 0.15512,1.44289 0.46256,1.92089 0.0816,0.12288 0.19034,0.25246 0.2845,0.35574 0.5061,0.53734 1.21262,0.8183 2.09877,0.8183 1.1497,0 2.16288,-0.42835 3.13035,-1.31628 0.97895,-0.89922 1.67755,-2.3079 2.09877,-4.19754 0.38699,-1.73017 0.33297,-3.02212 -0.21348,-3.8418 -0.52351,-0.79674 -1.28917,-1.17383 -2.34767,-1.17383 -0.17963,0 -0.35928,-0.0208 -0.53358,0 z m 64.2795,6.22507 c -0.96747,0.26196 -2.05189,0.48235 -3.48608,0.67606 -1.06996,0.15928 -1.83267,0.32722 -2.27663,0.49796 -0.38699,0.15928 -0.6986,0.37989 -0.96056,0.67586 -0.25027,0.28451 -0.41824,0.58324 -0.49798,0.92493 -0.0227,0.13657 -0.0355,0.27738 -0.0355,0.39115 0,0.009 -2.1e-4,0.0265 0,0.0355 10e-4,0.027 -0.003,0.0806 0,0.10676 0.007,0.0515 0.0215,0.12965 0.0355,0.17767 0.005,0.0156 0.0296,0.0558 0.0355,0.0712 0.0121,0.0307 0.0201,0.0777 0.0357,0.10676 0.0156,0.0288 0.052,0.0789 0.0711,0.1066 0.0298,0.0409 0.0704,0.10381 0.10676,0.14229 0.28451,0.31874 0.85232,0.46237 1.67181,0.46237 0.89941,0 1.7644,-0.17072 2.56133,-0.56901 0.78547,-0.38718 1.41857,-0.96491 1.88529,-1.63641 0.34149,-0.478 0.61472,-1.21379 0.85372,-2.16998 z m -217.28233,-28.52179 95.46929,-98.57067 15.59047,0 -23.05124,98.57067 -12.82332,0 6.54515,-28.37436 -40.02227,0 -27.19747,28.37436 -14.51061,0 m 51.43396,-38.52729 32.73323,0 6.03932,-24.74351 c 2.43739,-9.81665 4.78357,-17.99724 7.03857,-24.5418 -4.50645,5.64804 -10.46856,12.34942 -17.88634,20.10409 l -27.92478,29.18113"
       id="path3552"
       style="fill:#ffffff;fill-opacity:1;fill-rule:evenodd;stroke:none" />
  </g>
</svg>
