<?xml version="1.0" encoding="UTF-8" standalone="no"?>
<!-- Created with Inkscape (http://www.inkscape.org/) -->

<svg
   xmlns:dc="http://purl.org/dc/elements/1.1/"
   xmlns:cc="http://creativecommons.org/ns#"
   xmlns:rdf="http://www.w3.org/1999/02/22-rdf-syntax-ns#"
   xmlns:svg="http://www.w3.org/2000/svg"
   xmlns="http://www.w3.org/2000/svg"
   version="1.1"
   width="566.28577"
   height="185.75"
   id="svg3253">
  <defs
     id="defs3255" />
  <metadata
     id="metadata3258">
    <rdf:RDF>
      <cc:Work
         rdf:about="">
        <dc:format>image/svg+xml</dc:format>
        <dc:type
           rdf:resource="http://purl.org/dc/dcmitype/StillImage" />
        <dc:title></dc:title>
      </cc:Work>
    </rdf:RDF>
  </metadata>
  <g
     transform="translate(-94.007646,-416.625)"
     id="layer1">
    <path
       d="m 539,0 c -8.30955,0.59935024 -19.38671,3.0961239 -29.875,7.3125 l -58.96875,0 -283.90625,0 -126.65625,0 L 0,180.03125 l 104.1875,0 183.15625,0 74.3125,0 c 5.47727,3.20472 12.13385,5.0713 19.5625,5.71875 l 0.125,0 0.0937,0 12.75,0 0.0937,0 0.125,0 c 4.14373,-0.32333 8.46855,-0.93836 12.9375,-1.8125 7.70474,-1.5066 15.82837,-3.80423 24.25,-6.875 6.37566,-2.32461 12.9232,-5.05797 19.5625,-8.25 14.44806,-6.926 29.32904,-15.87029 43.9375,-26.625 l 0,0.0312 c 4.8139,-3.54095 9.44327,-7.18306 13.875,-10.875 4.06436,-3.38174 7.96019,-6.80615 11.6875,-10.28125 l 0,-0.0312 0.0312,-0.0312 c 10.46897,-10.0892 18.42044,-20.32466 23.03125,-29.59375 2.40162,-4.82709 3.90482,-9.38615 4.28125,-13.625 0.37643,-4.23885 -0.43084,-8.2594 -2.8125,-11.40625 -1.74915,-2.315 -4.21071,-3.83656 -7.03125,-4.84375 9.1679,-7.52724 16.63743,-15.57159 21.53125,-23.4375 5.71468,-9.18529 8.25994,-18.27512 5.46875,-25.9375 C 563.3722,7.2343 559.34269,3.54088 554.03125,1.625 551.67248,0.77665 549.09811,0.26409 546.34375,0.03125 L 546.21875,0 l -0.125,0 -6.875,0 L 539.125,0 539,0 z m 0.4375,5.6875 6.40625,0 c 2.34812,0.1985 4.45003,0.63388 6.25,1.28125 4.04598,1.45942 6.53746,3.86597 7.71875,7.125 1.87781,5.15498 0.24078,12.62665 -4.96875,21 -5.20953,8.37335 -13.81228,17.44918 -24.75,25.65625 l -6.03125,4.53125 7.53125,0.59375 c 4.45209,0.34483 7.38766,1.72086 9.0625,3.9375 1.37289,1.81397 1.97534,4.19622 1.6875,7.4375 -0.28784,3.24128 -1.53802,7.24189 -3.71875,11.625 -4.18373,8.41054 -11.74709,18.26402 -21.84375,28 -0.011,0.0106 -0.0204,0.0208 -0.0312,0.0312 -3.63774,3.39046 -7.46532,6.75745 -11.4375,10.0625 -4.34837,3.6225 -8.87691,7.18668 -13.59375,10.65625 -14.3303,10.54993 -28.92553,19.26935 -43.03125,26.03125 -6.47244,3.11181 -12.83409,5.80297 -19.03125,8.0625 -8.17541,2.98099 -16.03539,5.21493 -23.40625,6.65625 -4.27235,0.83568 -8.37692,1.38285 -12.28125,1.6875 l -12.28125,0 c -0.1054,-0.009 -0.20761,-0.0216 -0.3125,-0.0312 l 1.21875,0 c -11.34894,-0.99044 -20.31754,-4.95636 -25.65625,-12.21875 -0.99023,-1.34339 -1.78299,-2.79857 -2.5,-4.3125 -0.45543,-1.11548 -0.87981,-2.23678 -1.3125,-3.375 -1.1384,-3.62001 -1.61122,-7.62602 -1.40625,-11.90625 0.56922,-11.92963 6.1765,-26.14025 15.875,-41 10.30172,-15.79179 25.23245,-32.32819 43.71875,-47.6875 4.14351,-3.43997 8.42143,-6.85495 12.90625,-10.15625 5.54368,-4.07842 11.12975,-7.83097 16.71875,-11.34375 20.59218,-12.96437 41.14195,-22.01714 59.34375,-26.625 -17.39359,5.67445 -36.94403,15.29171 -56.25,28.40625 -0.69444,0.4689 -1.37932,0.96385 -2.0625,1.4375 -10.71147,7.42185 -20.40594,15.2898 -28.875,23.25 -27.25154,25.62363 -41.6704,52.19482 -35.125,67.75 0.46672,1.06996 1.03875,2.06357 1.6875,3.03125 7.03486,10.34722 24.46767,12.14872 46.5625,6.59375 1.50265,-0.37551 2.98329,-0.80604 4.53125,-1.25 7.05762,-2.03745 14.56342,-4.7954 22.28125,-8.1875 1.85543,-0.81969 3.73536,-1.66309 5.625,-2.5625 0.1935,-0.091 0.36901,-0.17877 0.5625,-0.28125 24.36018,-12.10374 43.07268,-26.00722 47.125,-34.375 0.88795,-1.82019 1.10343,-3.37697 0.5,-4.59375 -2.89134,-5.86242 -23.11682,-1.89835 -47.625,8.71875 -1.96917,0.85389 -3.95387,1.72063 -5.96875,2.65625 1.63916,-1.52184 3.3523,-3.05886 5.09375,-4.5625 2.77758,-2.39277 5.65667,-4.72039 8.71875,-7.03125 4.79227,-3.62891 9.63653,-6.90414 14.40625,-9.8125 22.33383,-16.84949 33.60638,-32.8039 31.25,-38.71875 -0.44396,-1.11447 -1.38659,-1.87682 -2.84375,-2.34375 -4.65574,-1.48088 -13.14428,0.30009 -23.46875,4.53125 -8.51478,3.49243 -18.304,8.6473 -28.21875,15.09375 l -1.34375,0.90625 -0.25,0.125 -4.78125,3.1875 2.75,-5.03125 c 4.06379,-7.43907 10.69616,-15.19609 18.9375,-22.40625 6.04444,-5.27165 12.94187,-10.24762 20.375,-14.59375 2.8116,-1.64609 5.62588,-3.15284 8.4375,-4.53125 2.88006,-1.40709 5.75088,-2.66797 8.5625,-3.78125 2.28653,-0.90425 4.62141,-1.871576 6.96875,-2.8125 7.88273,-2.5548373 15.71674,-4.1073573 21.59375,-4.53125 z M 348,7.5625 c -1.11547,17.02579 2.16613,41.96886 9.65625,69.65625 1.33189,4.92661 2.78134,9.92878 4.375,15 0.99042,3.13154 2.0153,6.21521 3.0625,9.25 -0.61472,0.90378 -1.2318,1.78591 -1.8125,2.6875 -9.34553,14.3222 -14.81009,27.85484 -16.1875,39.625 -3.95003,-13.2273 -6.90887,-27.69963 -8.59375,-43.0625 -0.478,-4.40172 -0.87453,-8.76188 -1.125,-13.0625 C 335.53086,56.41731 339.63341,28.11471 348,7.5625 z m -223.90625,21.40625 15.59375,0 -23.0625,98.59375 -12.8125,0 6.53125,-28.375 -40,0 -27.21875,28.375 -14.5,0 95.46875,-98.59375 z m 37.375,0.75 c 0.21308,-0.005 0.4392,0 0.65625,0 l 42.09375,0 c 3.59707,0 6.3631,0.67778 8.34375,2.03125 1.96918,1.3614 2.71673,3.10771 2.25,5.25 l -5.03125,22.65625 -14.8125,0 4.84375,-22.03125 -37.125,0 -13.40625,60.59375 -4.84375,21.96875 37.09375,0 0.0625,-0.15625 7.40625,-33.5625 -17.40625,0 L 173.25,78.875 c 0,-1.9e-4 32.28125,0 32.28125,0 0,-1.9e-4 -9.25,41.90625 -9.25,41.90625 -0.12531,0.59652 -0.36027,1.12107 -0.65625,1.65625 -0.76271,1.38868 -2.08209,2.58335 -3.9375,3.5625 -2.57261,1.35447 -5.65272,2.03125 -9.25,2.03125 l -42.0625,0 c -3.59707,0 -6.36291,-0.67678 -8.34375,-2.03125 -1.96918,-1.35467 -2.72811,-3.07409 -2.25,-5.21875 L 148.3125,37 c 0.478,-2.14229 1.97862,-3.88861 4.5625,-5.25 0.0912,-0.0491 0.19024,-0.07851 0.28125,-0.125 2.35854,-1.18135 5.1149,-1.83067 8.3125,-1.90625 z m 65.96875,0 52.96875,0 c 3.55156,0 6.33164,0.67778 8.3125,2.03125 1.99192,1.3614 2.75925,3.10771 2.28125,5.25 l -9.875,44.6875 c -0.46672,2.12865 -1.99838,3.85498 -4.59375,5.21875 -2.59536,1.36831 -5.6557,2.0625 -9.21875,2.0625 l -38.5,0 -7.4375,33.5625 -1.1875,5.5 -14.53125,0 1.09375,-4.96875 20.6875,-93.34375 z m 73.15625,0 14.53125,0 -16.4375,74.25 -3.59375,16.21875 34.71875,0 c 0.36423,2.66245 0.79455,5.25988 1.25,7.84375 l -52.21875,0 4.125,-18.625 17.625,-79.6875 z m -60.40625,7.90625 -9.625,43.46875 36.1875,0 9.59375,-43.46875 -36.15625,0 z M 125.875,39.75 C 121.36855,45.39804 115.41778,52.08908 108,59.84375 l -27.9375,29.1875 32.71875,0 6.0625,-24.75 C 121.28114,54.4646 123.62,46.29456 125.875,39.75 z m 37.1875,100.46875 c 0.14213,-0.005 0.29446,0 0.4375,0 1.68467,0 3.12878,0.28581 4.3125,0.84375 1.26366,0.59195 2.18674,1.46382 2.6875,2.625 0.48947,1.12692 0.6055,2.41233 0.34375,3.8125 l -0.0937,0.53125 -4.15625,0 c -1.9e-4,0 0.0312,-0.5 0.0312,-0.5 0.10763,-0.97836 -0.029,-1.7522 -0.40625,-2.28125 -0.0492,-0.0662 -0.0988,-0.15918 -0.15625,-0.21875 -0.0938,-0.096 -0.25431,-0.20211 -0.375,-0.28125 -0.58246,-0.367 -1.48162,-0.5625 -2.65625,-0.5625 -1.55964,0 -2.73451,0.26605 -3.53125,0.8125 -0.77417,0.53499 -1.24697,1.1578 -1.40625,1.875 -0.15946,0.72847 0.099,1.10774 0.28125,1.3125 0.005,0.005 0.0246,0.025 0.0312,0.0312 0.23069,0.19646 1.00989,0.66239 3.5,1.25 2.25387,0.54644 3.75131,1.01628 4.59375,1.4375 1.27493,0.64874 2.18953,1.49552 2.65625,2.53125 0.46673,1.02467 0.56597,2.23357 0.28125,3.53125 -0.2845,1.26366 -0.95004,2.40728 -1.90625,3.5 -0.94472,1.09271 -2.14788,1.95907 -3.59375,2.5625 -1.43419,0.59196 -3.00858,0.9375 -4.625,0.9375 -2.04911,0 -3.68254,-0.32278 -4.96875,-0.9375 -1.34319,-0.63745 -2.30599,-1.62835 -2.875,-2.9375 -0.54647,-1.27474 -0.68225,-2.73031 -0.375,-4.3125 l 0.125,-0.5 4.09375,0 -0.0312,0.5 c -0.10243,0.94472 1.1e-4,1.71204 0.25,2.28125 0.2392,0.54646 0.67776,0.99099 1.40625,1.34375 0.77417,0.37572 1.73956,0.59375 2.84375,0.59375 0.99042,0 1.91054,-0.17277 2.71875,-0.46875 0.79673,-0.28472 1.41975,-0.67806 1.875,-1.15625 0.44397,-0.478 0.69874,-0.98498 0.8125,-1.53125 0.11387,-0.48947 0.0996,-0.87727 -0.0937,-1.21875 -0.21625,-0.36423 -0.64081,-0.69572 -1.3125,-0.96875 0,-2e-4 -3.5,-1.03125 -3.5,-1.03125 -1.94642,-0.48948 -3.26855,-0.97078 -4.03125,-1.4375 -1.03593,-0.61452 -1.76905,-1.39904 -2.15625,-2.34375 -0.38699,-0.93345 -0.43797,-1.96682 -0.1875,-3.09375 0.26176,-1.20667 0.85059,-2.35054 1.75,-3.375 0.91069,-1.03594 2.09984,-1.84003 3.5,-2.375 1.23793,-0.46415 2.53399,-0.73516 3.90625,-0.78125 z m 37.34375,0.0625 c 0.22514,-0.0173 0.4485,0 0.6875,0 l 2.5625,0.28125 0.84375,0.0625 c 2e-4,0 -1.25,3.1875 -1.25,3.1875 l -0.25,0.5 -1.9375,-0.1875 c -0.57771,0 -1.00267,0.0858 -1.28125,0.28125 -0.0184,0.0139 -0.0768,0.0476 -0.0937,0.0625 -0.0374,0.0328 -0.0829,0.10358 -0.125,0.15625 -0.17142,0.22457 -0.37752,0.61804 -0.53125,1.34375 0,0 -0.088,0.30054 -0.15625,0.5625 l 3.0625,0 -0.78125,3.53125 -3,0 c -0.22773,1.02445 -3,13.5625 -3,13.5625 l -4.125,0 c 0,0 2.6585,-12.04858 3,-13.5625 l -2.375,0 0.78125,-3.53125 2.34375,0 c 0.11369,-0.48947 0.28125,-1.09375 0.28125,-1.09375 0.25049,-1.13842 0.5335,-1.96203 0.875,-2.53125 0.46692,-0.78545 1.10655,-1.42806 1.9375,-1.90625 0.68456,-0.39768 1.55567,-0.64279 2.53125,-0.71875 z m 9.84375,0.1875 c 0,0 -1.07072,4.83307 -1.34375,6.0625 l 2.6875,0 -0.78125,3.53125 -2.6875,0 c -0.21624,0.97874 -1.90625,8.5625 -1.90625,8.5625 0,0 -0.15625,0.92574 -0.15625,1.1875 2.1e-4,0.009 -7.8e-4,0.0248 0,0.0312 5.9e-4,0.003 -7.8e-4,0.0291 0,0.0312 9.9e-4,0.002 0.0299,-0.001 0.0312,0 l 0.4375,0.0312 1.96875,-0.125 -0.21875,3.15625 0.0312,0.5625 -2.8125,0.3125 c -1.11547,0 -1.9393,-0.17532 -2.53125,-0.5625 -0.62599,-0.40974 -0.97701,-0.94201 -1.125,-1.625 -0.0227,-0.12531 -0.0937,-0.30075 -0.0937,-0.5625 0,-0.51223 0.10724,-1.4036 0.4375,-2.90625 0,0 1.49376,-6.68232 1.8125,-8.09375 l -1.9375,0 0.78125,-3.53125 1.9375,0 c 0.18221,-0.81968 0.8125,-3.625 0.8125,-3.625 l 3.3125,-1.75 1.34375,-0.6875 z m -131.0625,0.125 16,0 -0.875,4 -11.71875,0 c -0.18209,0.80821 -0.92568,4.06608 -1.1875,5.25 l 10.15625,0 -0.90625,4 -10.125,0 C 80.31497,154.83417 78.375,163.625 78.375,163.625 l -4.3125,0 5.125,-23.03125 z m 21.4375,5.625 c 0.1606,-0.0198 0.33813,0 0.5,0 1.02449,0 1.96436,0.31999 2.875,0.96875 l 0.59375,0.375 -2.21875,3.625 -0.59375,-0.40625 c -0.44391,-0.2845 -0.93662,-0.4375 -1.4375,-0.4375 -0.43257,0 -0.8402,0.16449 -1.25,0.4375 -0.43257,0.28472 -0.78935,0.64402 -1.0625,1.15625 -0.4781,0.87646 -0.82346,1.87882 -1.0625,2.9375 l -1.9375,8.75 -4.125,0 3.8125,-17.09375 3.84375,0 c 0,0 -0.14199,0.52525 -0.1875,0.71875 0.18218,-0.13658 0.40308,-0.33502 0.5625,-0.4375 0.55133,-0.32901 1.11374,-0.5235 1.6875,-0.59375 z m 12.25,0 c 0.24845,-0.0189 0.49598,0 0.75,0 2.32215,0 4.06903,0.80112 5.21875,2.40625 0.71714,1.03573 1.09375,2.31836 1.09375,3.84375 0,0.84225 -0.0962,1.75977 -0.3125,2.75 l -0.3125,1.25 -11.59375,0 c -0.0227,0.23901 -0.0312,0.50249 -0.0312,0.71875 0,0.88793 0.17553,1.58152 0.5625,2.09375 0.18392,0.25047 0.38183,0.4608 0.625,0.625 0.4585,0.29915 1.05722,0.46875 1.75,0.46875 0.84232,0 1.58688,-0.24373 2.28125,-0.6875 0.6602,-0.42122 1.28595,-1.06655 1.84375,-2 l 4.40625,0 -0.375,0.84375 c -0.84239,1.70762 -2.03159,3.02383 -3.5,3.96875 -1.4684,0.94472 -3.22107,1.46875 -5.15625,1.46875 -2.51565,0 -4.37017,-0.80112 -5.53125,-2.40625 -1.14971,-1.57091 -1.42716,-3.76811 -0.8125,-6.5 0.61477,-2.77758 1.86909,-4.9831 3.65625,-6.53125 1.60186,-1.3889 3.4144,-2.15975 5.4375,-2.3125 z m 18.53125,0 c 0.24829,-0.0189 0.49615,0 0.75,0 2.32233,0 4.06905,0.80112 5.21875,2.40625 0.71718,1.03573 1.09375,2.31836 1.09375,3.84375 0,0.83097 -0.0962,1.7398 -0.3125,2.71875 l -0.3125,1.28125 -11.59375,0 c -0.0121,0.15946 -0.02,0.30949 -0.0312,0.46875 -0.009,0.0598 0.003,0.12463 0,0.1875 -3.2e-4,0.0104 0,0.0527 0,0.0625 0,0.17072 0.0199,0.34074 0.0312,0.5 0.0568,0.64895 0.22392,1.184 0.53125,1.59375 0.0586,0.0797 0.12319,0.17898 0.1875,0.25 0.52136,0.55773 1.24126,0.84375 2.1875,0.84375 0.84237,0 1.59829,-0.24374 2.28125,-0.6875 0.66042,-0.42122 1.286,-1.06655 1.84375,-2 l 4.4375,0 -0.40625,0.84375 c -0.84244,1.70762 -2.03158,3.02382 -3.5,3.96875 -1.46842,0.94471 -3.22118,1.46875 -5.15625,1.46875 -2.51573,0 -4.3702,-0.80112 -5.53125,-2.40625 -0.75128,-1.02446 -1.125,-2.32685 -1.125,-3.875 0,-0.23901 0.008,-0.49951 0.0312,-0.75 0.0456,-0.59175 0.1645,-1.21479 0.3125,-1.875 0.61468,-2.76611 1.80659,-4.9831 3.59375,-6.53125 1.6018,-1.3889 3.44555,-2.15976 5.46875,-2.3125 z m 50.46875,0 c 0.25425,-0.0196 0.49101,0 0.75,0 2.36784,0 4.19128,0.79262 5.375,2.375 1.17263,1.58218 1.44699,3.71987 0.84375,6.40625 -0.46672,2.09461 -1.14034,3.80182 -2.0625,5.03125 -0.92198,1.22942 -2.07987,2.22328 -3.46875,2.90625 -1.37722,0.68297 -2.84408,1.03125 -4.3125,1.03125 -2.41335,0 -4.21383,-0.81259 -5.375,-2.40625 -0.75122,-1.01318 -1.125,-2.31536 -1.125,-3.875 0,-0.84223 0.0848,-1.74829 0.3125,-2.75 0.68297,-3.05082 2.07608,-5.38382 4.125,-6.875 1.50404,-1.0858 3.15806,-1.70703 4.9375,-1.84375 z m 62.5,0 c 0.30014,-0.0185 0.59485,0 0.90625,0 1.43421,0 2.55253,0.14708 3.40625,0.5 0.9107,0.36425 1.54202,0.88528 1.90625,1.5 0.35297,0.58048 0.53125,1.27979 0.53125,2.15625 l -0.40625,2.59375 -0.78125,3.53125 c -0.67169,3.00511 -0.84077,4.14128 -0.875,4.5625 -0.0341,0.5692 0.028,1.11258 0.1875,1.625 l 0.28125,0.9375 -4.1875,0 -0.1875,-0.53125 c -0.0683,-0.25029 -0.0398,-0.59029 -0.0625,-0.875 -0.79693,0.48947 -1.5953,0.93722 -2.3125,1.1875 -1.05867,0.36444 -2.16559,0.5625 -3.28125,0.5625 -1.93495,0 -3.35356,-0.50977 -4.21875,-1.5 -0.66003,-0.72849 -0.96875,-1.61183 -0.96875,-2.625 0,-0.38699 0.0653,-0.79755 0.15625,-1.21875 0.1935,-0.8652 0.53603,-1.6578 1.09375,-2.375 0.54645,-0.70572 1.17779,-1.29752 1.90625,-1.71875 0.70573,-0.4212 1.49282,-0.70128 2.3125,-0.90625 l 2.53125,-0.4375 c 1.94642,-0.22773 3.39029,-0.50505 4.4375,-0.8125 0.0227,-0.1137 0.0937,-0.25 0.0937,-0.25 0.165,-0.73243 0.14863,-1.28037 -0.0312,-1.5625 -0.0139,-0.0182 -0.0788,-0.0469 -0.0937,-0.0625 -0.0383,-0.0409 -0.0801,-0.11916 -0.125,-0.15625 -0.42814,-0.33872 -1.18006,-0.5 -2.15625,-0.5 -1.10419,0 -1.89974,0.1783 -2.46875,0.53125 -0.55793,0.35278 -1.07581,1.01533 -1.53125,1.9375 l -4.3125,0 0.40625,-0.875 c 0.51223,-1.18391 1.1123,-2.15503 1.875,-2.90625 0.76271,-0.75122 1.77355,-1.34025 2.96875,-1.75 0.91584,-0.30231 1.92806,-0.49641 3,-0.5625 z m 18.03125,0 c 0.16067,-0.0198 0.33815,0 0.5,0 1.03593,0 2.02681,0.31999 2.9375,0.96875 l 0.53125,0.375 -2.21875,3.625 -0.59375,-0.40625 c -0.44398,-0.2845 -0.91698,-0.4375 -1.40625,-0.4375 -0.43269,0 -0.86022,0.16449 -1.28125,0.4375 -0.43269,0.28472 -0.74675,0.64402 -1.03125,1.15625 -0.46674,0.87646 -0.82349,1.87882 -1.0625,2.9375 l -1.9375,8.75 -4.15625,0 3.8125,-17.09375 3.84375,0 c 0,0 -0.0794,0.52525 -0.125,0.71875 0.18203,-0.13658 0.36051,-0.33502 0.53125,-0.4375 0.54249,-0.32901 1.08289,-0.5235 1.65625,-0.59375 z m 12.21875,0 c 0.24811,-0.0189 0.49616,0 0.75,0 2.32234,0 4.08035,0.80112 5.21875,2.40625 0.72848,1.03573 1.09375,2.31836 1.09375,3.84375 0,0.84225 -0.12738,1.75977 -0.34375,2.75 l -0.28125,1.25 -11.59375,0 c -0.0227,0.23901 -0.0937,0.50249 -0.0937,0.71875 0,0.88793 0.21823,1.58152 0.59375,2.09375 0.0586,0.0797 0.12307,0.17897 0.1875,0.25 0.0374,0.0397 0.11691,0.0879 0.15625,0.125 0.50887,0.46257 1.20088,0.71875 2.0625,0.71875 0.84243,0 1.587,-0.24373 2.28125,-0.6875 0.66042,-0.42122 1.27455,-1.06655 1.84375,-2 l 4.4375,0 -0.40625,0.84375 c -0.84244,1.70762 -2.04305,3.02382 -3.5,3.96875 -1.4799,0.94471 -3.20964,1.46875 -5.15625,1.46875 -2.51564,0 -4.33903,-0.80112 -5.5,-2.40625 -1.14968,-1.57091 -1.44697,-3.76811 -0.84375,-6.5 0.61472,-2.77758 1.80659,-4.9831 3.59375,-6.53125 1.61187,-1.3889 3.47879,-2.15975 5.5,-2.3125 z m -62.3125,0.3125 4.25,0 c 0,0 0.51978,10.13325 0.53125,10.28125 0.17073,-0.36286 0.29569,-0.67542 0.3125,-0.71875 l 4.65625,-9.5625 3.875,0 c 0,0 0.375,10.00552 0.375,10.0625 0.1137,-0.20477 5.28125,-10.0625 5.28125,-10.0625 l 4.21875,0 -9.25,17.09375 -3.8125,0 c 0,0 -0.38349,-9.25755 -0.40625,-9.78125 -1.57091,3.22154 -4.75,9.78125 -4.75,9.78125 l -3.90625,0 -1.375,-17.09375 z m -99.375,3.25 c -0.98055,0.0414 -1.85513,0.39021 -2.6875,1.0625 -0.6602,0.5237 -1.11589,1.24599 -1.46875,2.03125 0,2.1e-4 7,0 7,0 0.0121,-0.12496 0.0312,-0.29248 0.0312,-0.40625 0,-0.64893 -0.1076,-1.12726 -0.3125,-1.46875 -0.50079,-0.81947 -1.23955,-1.21875 -2.34375,-1.21875 -0.0662,0 -0.15336,-0.003 -0.21875,0 z m 18.53125,0 c -0.98054,0.0414 -1.85504,0.39021 -2.6875,1.0625 -0.66019,0.5237 -1.10447,1.24599 -1.46875,2.03125 0,2.1e-4 7,0 7,0 0.0121,-0.12496 0.0312,-0.29248 0.0312,-0.40625 0,-0.64893 -0.0962,-1.12726 -0.3125,-1.46875 -0.0995,-0.16639 -0.22208,-0.33836 -0.34375,-0.46875 -0.47543,-0.49105 -1.13739,-0.75 -2,-0.75 -0.0662,0 -0.15329,-0.003 -0.21875,0 z m 143.375,0 c -1.00843,0.031 -1.95226,0.36785 -2.8125,1.0625 -0.64874,0.5237 -1.10452,1.24599 -1.46875,2.03125 0,2.1e-4 6.96875,0 6.96875,0 0.0121,-0.12496 0.0312,-0.29248 0.0312,-0.40625 0,-0.64893 -0.0962,-1.12726 -0.3125,-1.46875 -0.48947,-0.80821 -1.23956,-1.20728 -2.34375,-1.21875 -0.0326,3.9e-4 -0.0301,-9.9e-4 -0.0625,0 z m -93.21875,0.0625 c -0.94098,0.11162 -1.80868,0.54189 -2.625,1.28125 -0.97895,0.88794 -1.68401,2.28087 -2.09375,4.125 -0.17072,0.77398 -0.25,1.43948 -0.25,2.03125 0,0.80821 0.16131,1.4595 0.46875,1.9375 0.0816,0.12288 0.18709,0.24047 0.28125,0.34375 0.5061,0.53734 1.2076,0.8125 2.09375,0.8125 1.1497,0 2.15753,-0.42457 3.125,-1.3125 0.97895,-0.89922 1.67253,-2.29786 2.09375,-4.1875 0.38699,-1.73017 0.3277,-3.02407 -0.21875,-3.84375 -0.52351,-0.79674 -1.28525,-1.1875 -2.34375,-1.1875 -0.17963,0 -0.35695,-0.0208 -0.53125,0 z m 64.28125,6.21875 c -0.96747,0.26196 -2.03456,0.49379 -3.46875,0.6875 -1.06996,0.15928 -1.83729,0.32926 -2.28125,0.5 -0.38699,0.15928 -0.70679,0.39153 -0.96875,0.6875 -0.25027,0.28451 -0.42026,0.56456 -0.5,0.90625 -0.0227,0.13657 -0.0312,0.29248 -0.0312,0.40625 0,0.009 -2.1e-4,0.0223 0,0.0312 0.001,0.027 -0.003,0.0676 0,0.0937 0.007,0.0515 0.0172,0.13948 0.0312,0.1875 0.005,0.0156 0.0254,0.0471 0.0312,0.0625 0.0121,0.0307 0.0156,0.0959 0.0312,0.125 0.0156,0.0288 0.0746,0.066 0.0937,0.0937 0.0298,0.0409 0.0574,0.11777 0.0937,0.15625 0.28451,0.31874 0.83676,0.4375 1.65625,0.4375 0.89941,0 1.76557,-0.16421 2.5625,-0.5625 0.78547,-0.38718 1.43953,-0.9535 1.90625,-1.625 0.34149,-0.478 0.60475,-1.23131 0.84375,-2.1875 z"
       transform="translate(94.007646,416.625)"
       id="path3618"
       style="font-size:medium;font-style:normal;font-variant:normal;font-weight:normal;font-stretch:normal;text-indent:0;text-align:start;text-decoration:none;line-height:normal;letter-spacing:normal;word-spacing:normal;text-transform:none;direction:ltr;block-progression:tb;writing-mode:lr-tb;text-anchor:start;baseline-shift:baseline;color:#000000;fill:#616161;fill-opacity:1;fill-rule:evenodd;stroke:none;stroke-width:5.69160366;marker:none;visibility:visible;display:inline;overflow:visible;enable-background:accumulate;font-family:Sans;-inkscape-font-specification:Sans" />
  </g>
</svg>
